<svg id="Layer_1" data-name="Layer 1" xmlns="http://www.w3.org/2000/svg" viewBox="0 0 388.71 106.08"><defs><style>.cls-1{fill:#1c4392;}.cls-2{fill:#fff;}.cls-3{fill:#da291c;}.cls-4{fill:#faaf43;}.cls-5{fill:#90c349;}.cls-6{fill:#fad8cd;}</style></defs><title>UoA_Primary_Logo_RGB</title><path class="cls-1" d="M338,332.55,324.81,298H313l1.68,1.26a2.24,2.24,0,0,1,1.16,1.9,7.76,7.76,0,0,1-.67,2.74L303.68,333c-1.24,3.13-2.36,4.83-3.84,5.87L298,340.1H311.6l-1.26-1.2c-1.09-1-1.59-1.79-1.59-2.38a5.93,5.93,0,0,1,.49-2.38l3.73-9.3h14.24l3.47,9.41a7.32,7.32,0,0,1,.64,2.51c0,.5-.46,1-1.55,2.16l-1.12,1.18h15.18l-1.45-1.23A13.92,13.92,0,0,1,338,332.55Zm-22.81-13.19,5.19-13.07,4.79,13.07Z" transform="translate(-226.93 -235.01)"/><path class="cls-1" d="M372.57,315.45c3.32-2,5-4.62,5-7.76,0-6-5.37-9.71-14-9.71H347.79l1.42,1.23c2,1.74,2.16,3.66,2.16,6.62v26.36c0,3-.15,4.89-2.17,6.69l-1.37,1.22h14.93c11.36,0,18.42-5.19,18.42-13.55C381.18,321.31,378.21,317.5,372.57,315.45Zm-8.67,18.87c-1.06,0-2.65-.15-4.64-.36V319.87a31.21,31.21,0,0,1,4.46-.43c5.56,0,9.45,3.2,9.45,7.77S369.71,334.32,363.9,334.32Zm-2-19.94a20,20,0,0,1-2.6-.16V303.57a19,19,0,0,1,3.56-.41c4.21,0,6.63,2,6.63,5.43C369.45,312.27,366.68,314.38,361.86,314.38Z" transform="translate(-226.93 -235.01)"/><path class="cls-1" d="M403.62,334.14a50.84,50.84,0,0,1-6.75-.62v-13.3h3c2.93,0,4.78.06,5.77,1.25l1.24,1.49v-8.58h-10V304.17a27.85,27.85,0,0,1,5.36-.65,10.86,10.86,0,0,1,7,2.08l1.13.86V298H385.46l1.42,1.23c2,1.74,2.16,3.66,2.16,6.62v26.36c0,3-.14,4.88-2.17,6.69l-1.37,1.22h27.08l3.68-10.42-1.74,1.15A18.93,18.93,0,0,1,403.62,334.14Z" transform="translate(-226.93 -235.01)"/><path class="cls-1" d="M451.43,333.1l-10-13.41c6-2.65,8.73-6.06,8.73-10.68,0-6.6-5.69-11-14.15-11H420l1.41,1.23c2,1.74,2.16,3.66,2.16,6.62v26.36c0,3-.14,4.88-2.16,6.69L420,340.1h14.84l-1.37-1.22c-2-1.81-2.17-3.73-2.17-6.69V317.93L444,335.43a10.6,10.6,0,0,0,8.49,4.56l5.39-.28-1.25-1.13A38.93,38.93,0,0,1,451.43,333.1Zm-20.1-15.31V303.7a24.45,24.45,0,0,1,3.75-.42c4.25,0,7.1,2.52,7.1,6.27,0,4-3.05,6.52-9.9,8Z" transform="translate(-226.93 -235.01)"/><path class="cls-1" d="M492.82,302.88c-5.09-4.07-10.39-4.9-16.78-4.9H460l1.42,1.23c2,1.73,2.1,3.64,2.1,6.62v26.36c0,3-.1,4.9-2.11,6.69L460,340.1h14.08c10.09,0,16.05-2,20.58-7a21,21,0,0,0,5.54-14.71A19,19,0,0,0,492.82,302.88Zm-.6,16c0,9-6.3,15.52-15,15.52a43.5,43.5,0,0,1-5.91-.57V304.33a23,23,0,0,1,5.49-.69C486.17,303.64,492.22,309.64,492.22,318.92Z" transform="translate(-226.93 -235.01)"/><path class="cls-1" d="M522.37,334.14a51,51,0,0,1-6.75-.62v-13.3h3c2.93,0,4.78.06,5.77,1.25L525.6,323v-8.58h-10V304.17a27.85,27.85,0,0,1,5.36-.65,10.86,10.86,0,0,1,7,2.08l1.13.86V298H504.21l1.42,1.23c2,1.74,2.17,3.66,2.17,6.62v26.36c0,3-.15,4.88-2.17,6.69l-1.37,1.22h27.07L535,329.68l-1.74,1.15A18.93,18.93,0,0,1,522.37,334.14Z" transform="translate(-226.93 -235.01)"/><path class="cls-1" d="M556.89,334.14a49.2,49.2,0,0,1-6.74-.62v-13.3h3c2.93,0,4.78.06,5.77,1.25l1.24,1.5v-8.59h-10V304.17a27.68,27.68,0,0,1,5.36-.65,10.86,10.86,0,0,1,7,2.08l1.12.86V298H538.73l1.43,1.23c2,1.74,2.16,3.66,2.16,6.62v26.36c0,3-.15,4.89-2.17,6.69l-1.37,1.22h27.08l3.68-10.42-1.74,1.15A18.91,18.91,0,0,1,556.89,334.14Z" transform="translate(-226.93 -235.01)"/><path class="cls-1" d="M602.64,298l1.41,1.23c2,1.74,2.17,3.66,2.17,6.62v21.4L583.17,298H572.66l1.42,1.23c2,1.74,2.16,3.66,2.16,6.62v26.36c0,3-.14,4.89-2.17,6.69l-1.37,1.22h12.93l-1.37-1.22c-2-1.79-2.11-3.71-2.11-6.69V309.46l19.77,24.91c2.91,3.71,5.45,6.56,9.42,6.69l.72,0V305.83c0-3,.15-4.88,2.16-6.62l1.42-1.23Z" transform="translate(-226.93 -235.01)"/><path class="cls-1" d="M331.46,281.19c-1.91,2.52-5.48,3.57-8.52,3.57a10.68,10.68,0,0,1-7.87-3.05c-2.31-2.52-2.22-5.43-2.22-8.56V261.53c0-1.95.3-5.13-1.92-5.95v-.13h8.27v.13c-2.18.82-1.92,4-1.92,5.95v11.62c0,5.78,2.44,8.47,6.92,8.47a7.71,7.71,0,0,0,6.35-3c.95-1.3.91-2.39.91-4V261.53c0-1.95.26-5.13-1.91-5.95v-.13h8.26l0,.13c-2.21.82-2,4-2,6V278c0,2-.26,5.13,2,6v.13h-6.39Z" transform="translate(-226.93 -235.01)"/><path class="cls-1" d="M347.88,278.41c0,2.43,0,4.17,2.26,5.52v.13h-7.69v-.13c2.3-1.35,2.3-3.09,2.3-5.52V261.06c0-2.44,0-4.18-2.26-5.48v-.13h6.35v0a2.73,2.73,0,0,0,.65,1.09l.61.87L366,277.54V261.06c0-2.44,0-4.18-2.27-5.48v-.13h7.66v.13c-2.26,1.3-2.26,3-2.26,5.48v24.39c-3.09-1-4.44-2.48-6.35-5l-14.92-18.91Z" transform="translate(-226.93 -235.01)"/><path class="cls-1" d="M377.53,261.58c0-2,.31-5.18-1.91-6v-.13h8.26v.13c-2.17.82-1.91,4-1.91,6V278c0,2-.26,5.13,1.91,6v.13h-8.26v-.13c2.17-.78,1.91-4,1.91-6Z" transform="translate(-226.93 -235.01)"/><path class="cls-1" d="M407.47,263.32c1.18-3.09,2.65-6.66,0-7.74v-.13h6.48l-11.48,29.91c-3.05-2-4.05-2.34-5.31-5.78l-6.56-17.79c-.83-2.21-1.48-4.74-3.4-6.21v-.13h6.35l0,.52a18.11,18.11,0,0,0,1.17,4l6.92,18.92Z" transform="translate(-226.93 -235.01)"/><path class="cls-1" d="M424.19,280.41l5.53.52a10.8,10.8,0,0,0,8-2.57h.13l-2,5.7H417.8v-.13c2.22-.78,2-4,2-6V261.58c0-2,.26-5.18-2-6v-.13h13.92a4.5,4.5,0,0,0,2-.22h.13v5.09h-.13c-1.35-1.57-3.13-1.74-5.13-1.74a24.66,24.66,0,0,0-4.44.3V267h5.18a4.46,4.46,0,0,0,1.91-.26h.13v4.61h-.13c-.7-1.26-2.52-1.22-3.87-1.22h-3.22Z" transform="translate(-226.93 -235.01)"/><path class="cls-1" d="M451.07,255.45c5.83,0,9,3,9,7s-3.35,6.82-6.92,7.65l6.26,7.87a30.72,30.72,0,0,0,7.05,6.09h-4a5.74,5.74,0,0,1-5.05-2.17l-5.3-6.57-4-6.13c3.48-.52,7.52-2.13,7.52-6.22,0-3.13-2.7-5-5.61-4.83a24.87,24.87,0,0,0-3,.35V278c0,2-.26,5.18,2,6v.13h-8.3v-.13c2.21-.78,1.91-4,1.91-6V261.58c0-2,.3-5.18-1.91-6v-.13Z" transform="translate(-226.93 -235.01)"/><path class="cls-1" d="M485.29,260.62a9.9,9.9,0,0,0-6.83-2.74c-2.48,0-5.61,1-5.61,4,0,6,15,5.87,15,13.91,0,4.66-4.87,9-11.65,9a22.61,22.61,0,0,1-7.79-1.31L467.11,278a15.1,15.1,0,0,0,9.53,3.6c2.47,0,6.21-1.47,6.21-4.52,0-6.78-15-5.56-15-14.78,0-5.48,5.61-7.57,10.92-7.57a21.65,21.65,0,0,1,6.48,1Z" transform="translate(-226.93 -235.01)"/><path class="cls-1" d="M493.47,261.58c0-2,.3-5.18-1.91-6v-.13h8.26v.13c-2.18.82-1.91,4-1.91,6V278c0,2-.27,5.13,1.91,6v.13h-8.26v-.13c2.17-.78,1.91-4,1.91-6Z" transform="translate(-226.93 -235.01)"/><path class="cls-1" d="M516.26,278.41c0,2.48,0,4.17,2.26,5.52v.13h-8.61v-.13c2.18-.83,1.92-4,1.92-6V258.58H508a7.57,7.57,0,0,0-5.18,1.74h-.13l1.53-5.18h.13a6.88,6.88,0,0,0,1.65.31h17.31a4.87,4.87,0,0,0,2-.31h.13l-1.39,5.18h-.13c-.57-1.53-2.31-1.74-3.74-1.74h-3.92Z" transform="translate(-226.93 -235.01)"/><path class="cls-1" d="M543.19,278.41c0,2.61,0,3.91,2.21,5.52v.13h-8.47v-.13c2.13-1.09,1.82-3.91,1.82-6v-6.43l-7.22-11.62c-1.17-1.91-2-3.34-4.13-4.47h4c1.39,0,2.7.3,3.26,1.21l7,11.35,5.39-8.09c.74-1.08,1.74-3.17-.69-4.34v-.13h7.61l-10.7,16.09Z" transform="translate(-226.93 -235.01)"/><path class="cls-1" d="M595.49,269.45c0,8.87-7.35,15.31-16,15.31s-15.88-6.18-15.88-15.09c0-8.27,7.18-15.18,16.31-15C589.06,254.66,595.49,261.62,595.49,269.45Zm-26.92-.18c0,6.09,4.31,12.35,11.13,12.35,6.61,0,10.83-4.82,10.83-11.3s-4-12.48-10.91-12.48S568.57,262.71,568.57,269.27Z" transform="translate(-226.93 -235.01)"/><path class="cls-1" d="M605.37,278c0,2-.35,5.13,1.83,6v.13H599v-.13c2.22-.78,2-4,2-6V261.58c0-2,.26-5.18-2-6v-.13h13.91a4.51,4.51,0,0,0,2.05-.22h.13v5h-.13c-1.35-1.52-3.13-1.69-5.13-1.69a24.66,24.66,0,0,0-4.44.3V267h5.22a4.36,4.36,0,0,0,1.87-.26h.13v4.61h-.13c-.7-1.31-2.52-1.22-3.87-1.22h-3.22Z" transform="translate(-226.93 -235.01)"/><path class="cls-2" d="M298.53,255.83v-.38H227v.38s0,36.84,0,42.91c0,13.88,12.27,28.59,34.53,41.42l1.28.83,1.33-.81c22.25-12.79,34.5-27.51,34.5-41.44C298.57,292.67,298.53,255.83,298.53,255.83Z" transform="translate(-226.93 -235.01)"/><path class="cls-3" d="M262.75,340.54c0-.38,0-25.47,0-49.2,0-.07,35.44,0,35.44,0,0,2.73,0,6.22,0,7.54,0,23.48-35.22,41.06-35.41,41.65" transform="translate(-226.93 -235.01)"/><rect class="cls-4" x="47.55" y="21.11" width="5.79" height="13.66"/><rect class="cls-3" x="53.34" y="21.11" width="5.79" height="13.66"/><rect class="cls-4" x="59.13" y="21.11" width="5.93" height="13.66"/><rect class="cls-3" x="65.06" y="21.11" width="5.97" height="13.66"/><rect class="cls-3" x="41.8" y="21.11" width="5.74" height="13.66"/><rect class="cls-4" x="35.99" y="21.11" width="5.82" height="13.63"/><rect class="cls-1" x="0.42" y="20.82" width="35.41" height="35.5"/><line class="cls-2" x1="46.52" y1="85.19" x2="48.39" y2="85.19"/><line class="cls-2" x1="48.39" y1="85.19" x2="50.56" y2="85.19"/><polyline class="cls-2" points="43.74 60.51 43.74 59.5 44.24 59.5 44.24 60.08 44.74 60.08 44.74 59.49 45.26 59.49 45.26 60.08 45.76 60.08 45.76 59.5 46.2 59.5 46.2 60.51 43.74 60.51"/><polyline class="cls-2" points="47.38 60.48 47.38 59.47 47.88 59.47 47.88 60.04 48.37 60.04 48.37 59.47 48.9 59.47 48.9 60.04 49.4 60.04 49.4 59.47 49.84 59.47 49.84 60.48 47.38 60.48"/><polyline class="cls-2" points="50.92 60.45 50.92 59.44 51.42 59.44 51.42 60.02 51.92 60.02 51.92 59.44 52.44 59.44 52.44 60.02 52.94 60.02 52.94 59.45 53.38 59.45 53.38 60.45 50.92 60.45"/><polyline class="cls-2" points="44.34 67.28 42.87 77.05 54.34 77.05 52.84 67.28 44.34 67.28"/><polyline class="cls-2" points="42.75 65.98 42.75 63.23 54.47 63.22 54.47 65.96 52.84 67.28 44.34 67.28 42.75 65.98"/><polyline class="cls-2" points="40.73 79.06 40.73 85.24 56.35 85.24 56.35 79.11 54.29 77.04 42.81 77.04 40.73 79.06"/><line class="cls-2" x1="47.44" y1="73.56" x2="43.38" y2="73.56"/><polyline class="cls-2" points="43.74 63.08 44.03 61.35 43.74 60.51 46.2 60.51 45.91 61.35 46.2 63.08 43.74 63.08"/><polyline class="cls-2" points="47.36 63.09 47.65 61.35 47.38 60.48 49.84 60.48 49.52 61.35 49.81 63.09 47.36 63.09"/><polyline class="cls-2" points="50.91 63.07 51.2 61.34 50.92 60.45 53.38 60.45 53.09 61.34 53.37 63.07 50.91 63.07"/><path class="cls-2" d="M270.67,298.1h.88v-.85c.08-.57.66-.58.73,0v.85h.85l-.29-1.74H271Z" transform="translate(-226.93 -235.01)"/><path class="cls-2" d="M274.29,298.1h.88v-.84c.07-.57.66-.58.72,0v.84h.86l-.29-1.73h-1.88Z" transform="translate(-226.93 -235.01)"/><path class="cls-2" d="M277.84,298.09h.89v-.84c.07-.57.66-.58.72,0v.84h.85l-.28-1.74h-1.89Z" transform="translate(-226.93 -235.01)"/><path class="cls-4" d="M245,278h2.32c-.53,1-1,1.91,0,3.27s4.25,5,.09,8.58H245" transform="translate(-226.93 -235.01)"/><path class="cls-4" d="M245,278h-2.31c.53,1,1,1.91,0,3.27s-4.26,5-.1,8.58H245" transform="translate(-226.93 -235.01)"/><path class="cls-4" d="M250.45,284.59a2.06,2.06,0,0,1-.11-2.4c.45-1,2.54-3.3,1.66-5.1a2.47,2.47,0,0,0-4.2-.48,1.94,1.94,0,0,0,0,1.84,1.07,1.07,0,0,0,1.1.45.71.71,0,0,0,.55-.84.91.91,0,0,0-.59-.56,1.29,1.29,0,0,0-.5.15,1,1,0,0,1,.28-.89,1.4,1.4,0,0,1,1.42-.29,1.89,1.89,0,0,1,1.26,2c-.22.65-.32,1.37-2.32,2.2a1,1,0,0,0,1,.33c-.92,1.46-1.42,3,.07,4.64a.95.95,0,0,0,1.44-1.22.79.79,0,0,0-.81-.17,1,1,0,0,0-.27.34" transform="translate(-226.93 -235.01)"/><path class="cls-4" d="M239.48,284.58a2.06,2.06,0,0,0,.13-2.4c-.44-1-2.51-3.33-1.61-5.11a2.46,2.46,0,0,1,4.2-.44,1.9,1.9,0,0,1,0,1.84,1.07,1.07,0,0,1-1.1.43.71.71,0,0,1-.55-.84.89.89,0,0,1,.59-.55,1.23,1.23,0,0,1,.5.15.9.9,0,0,0-.27-.89,1.38,1.38,0,0,0-1.41-.31,1.89,1.89,0,0,0-1.28,2c.21.66.31,1.37,2.3,2.23a1,1,0,0,1-1,.31c.91,1.48,1.39,3-.11,4.65a1,1,0,0,1-1.47-.15.94.94,0,0,1,0-1.09.79.79,0,0,1,.81-.17,1.18,1.18,0,0,1,.26.35" transform="translate(-226.93 -235.01)"/><path class="cls-2" d="M243.07,283.53c-.13-.66-.32-1,.41-1.75.14,1.16.29,1.57,1.12,1.8s3,1.35,3.4,2.16.09,1.48-.68,1.19a4.64,4.64,0,0,1-1.85-1.46,7.1,7.1,0,0,0-1.84-1.39,2.11,2.11,0,0,0-1.44.1c.17-.66.44-.92.81-1A2.7,2.7,0,0,0,243.07,283.53Z" transform="translate(-226.93 -235.01)"/><path class="cls-2" d="M242.91,287.75a1.39,1.39,0,0,0,1,1,2,2,0,0,1-.13-1.55,3.35,3.35,0,0,1,1.09-1.77,16.22,16.22,0,0,0,1.93-1.58c.46-.49.45-.9-.35-.95a2.67,2.67,0,0,0-2.72,1.87c-.79,1.7-.51,1.85-.94,2.5a2.46,2.46,0,0,1-.93.76,2.6,2.6,0,0,0,1.22,0A2.84,2.84,0,0,0,242.91,287.75Z" transform="translate(-226.93 -235.01)"/><path class="cls-2" d="M245.89,285.93c-1,.44-1.09.39-1.86,0a3.42,3.42,0,0,0-1.85-.63c-.73,0-.63.51-.56.72a3.19,3.19,0,0,0,4.08,1.09,5.3,5.3,0,0,0,.84-.58,7.12,7.12,0,0,1-.65-.6" transform="translate(-226.93 -235.01)"/><path class="cls-2" d="M247.19,284.91a1.43,1.43,0,0,0,.22-1.14,1.2,1.2,0,0,1,.47,1,1.09,1.09,0,0,1,1,.58,1.54,1.54,0,0,0-1,.12A4.37,4.37,0,0,0,247.19,284.91Z" transform="translate(-226.93 -235.01)"/><path class="cls-2" d="M243.79,271.41a.52.52,0,0,0-.3.13,1.81,1.81,0,0,1,.31-2.29c.87.8.94,1.45.57,2.2-.16-.05-.18-.07-.26-.05h-.32" transform="translate(-226.93 -235.01)"/><path class="cls-5" d="M241.57,270.47a1.38,1.38,0,0,1,1,.25c-.37-1.05-1.21-3-1.23-3.2A8.64,8.64,0,0,0,241.57,270.47Z" transform="translate(-226.93 -235.01)"/><path class="cls-5" d="M246.66,272.8a10.33,10.33,0,0,1,3.14-3c-.42,2.5-1.07,3.22-1.58,3.68a5,5,0,0,0-1.59,2.63h-.5l-.63,0a4.87,4.87,0,0,1,.51-2.28Z" transform="translate(-226.93 -235.01)"/><path class="cls-5" d="M246.73,267.82a20.22,20.22,0,0,1-1.2,2.53l-.76,2.76-.36,2.19a4.28,4.28,0,0,1,0,.77l.73,0a5.56,5.56,0,0,1,.55-2.54S247.11,270,246.73,267.82Z" transform="translate(-226.93 -235.01)"/><polygon class="cls-2" points="20.51 21.25 21.52 21.71 20.51 21.9 21.06 22.46 20.15 22.34 20.73 23.17 19.85 22.78 20.11 23.63 19.34 23.03 19.41 23.85 18.78 23.46 18.5 24.52 18.17 23.77 17.86 24.31 17.6 23.68 16.84 24.38 16.87 23.5 16.21 23.84 16.14 23.03 15.55 23.46 15.55 22.92 14.9 23.29 15.09 22.58 14.17 22.78 14.77 21.96 13.88 21.91 14.99 21.27 11.18 21.34 12.1 22.27 10.74 22.75 11.81 23.21 10.13 23.71 11.47 24.19 9.97 24.94 11.18 25.16 9.44 26.54 11.41 26.34 9.82 27.9 11.3 27.66 9.99 29.46 11.82 28.77 10.9 30.67 12.61 29.6 12.59 31.03 13.53 30.3 13.47 31.45 14.39 30.69 14.6 31.57 15.46 31.01 15.68 32.18 16.62 31.25 17.2 32.32 17.86 31.28 18.74 32.2 19.14 31.16 19.98 32.06 20.27 30.75 21.19 31.95 21.36 30.43 22.72 31.69 22.21 29.6 23.69 30.79 23 28.58 24.32 29.45 23.67 28.15 24.98 28.82 23.73 26.81 25.32 27.59 24.57 26.25 26.41 26.5 23.91 25.13 25.73 25.14 23.93 24.14 25.44 24.06 23.59 23.22 25.39 23 23.2 22.22 24.64 21.34 20.51 21.25"/><path class="cls-2" d="M241.5,257.26" transform="translate(-226.93 -235.01)"/><path class="cls-2" d="M243.12,258.6" transform="translate(-226.93 -235.01)"/><path class="cls-2" d="M247.77,257.25" transform="translate(-226.93 -235.01)"/><path class="cls-2" d="M245.93,258.62" transform="translate(-226.93 -235.01)"/><path class="cls-2" d="M246.31,258.61" transform="translate(-226.93 -235.01)"/><path class="cls-2" d="M243.15,271.88" transform="translate(-226.93 -235.01)"/><path class="cls-2" d="M243.16,271.92a3.34,3.34,0,0,1-.09.43.88.88,0,0,0-.59,0,3,3,0,0,1-1.24-1.88,2.17,2.17,0,0,1,2.17,1.07l-.25.41" transform="translate(-226.93 -235.01)"/><path class="cls-2" d="M243.94,273.11a.89.89,0,1,0-.88-.89A.88.88,0,0,0,243.94,273.11Z" transform="translate(-226.93 -235.01)"/><path class="cls-2" d="M243.94,272.22" transform="translate(-226.93 -235.01)"/><path class="cls-3" d="M243.93,272.6a.39.39,0,0,0,0-.77.39.39,0,1,0,0,.77" transform="translate(-226.93 -235.01)"/><path class="cls-3" d="M243.93,272.22" transform="translate(-226.93 -235.01)"/><path class="cls-2" d="M245.12,272.14a2.59,2.59,0,0,0,1.69-1.79,2,2,0,0,0-2.07.64,5.21,5.21,0,0,0-.37.46.47.47,0,0,1,.23.2l.16.29" transform="translate(-226.93 -235.01)"/><path class="cls-2" d="M244.81,272.36a1.83,1.83,0,0,0,0-.27,2.2,2.2,0,0,1,2.06,1.27,2.47,2.47,0,0,1-1.33.18,2.11,2.11,0,0,1-1-.7.56.56,0,0,0,.17-.17l.09-.31" transform="translate(-226.93 -235.01)"/><path class="cls-5" d="M248.91,274a10.68,10.68,0,0,1,2-.81,12.1,12.1,0,0,1,5-.94,7.17,7.17,0,0,0,2,0c.41-.19-1.3,1.42-3.25,1.14a16.17,16.17,0,0,0-1.88,0c-.74.1-1.56.3-1.43.24a4,4,0,0,1,.88,0,6.07,6.07,0,0,1,1.94.36,5.66,5.66,0,0,1,1.82,1.32,7.75,7.75,0,0,0,.75.87c.13.12.15.1.3.12a.71.71,0,0,1,.51.3c.14.21.36.11.6.16a1.94,1.94,0,0,1,.86.66,1.54,1.54,0,0,0,1.08.44c-.69.65-1.09.66-1.09.66-.17-.72-.44-1.29-1.21-1.46a2,2,0,0,1,.94.9,3.69,3.69,0,0,1,.13.79,1.19,1.19,0,0,0,.42.57c-.93-.17-1.57-.39-1.71-1.07s-.39-.83-.39-.83a4.68,4.68,0,0,1,.29,1.09,1,1,0,0,0,.44.54,4.22,4.22,0,0,0,1.09.41c-1.23,0-2-.08-2.13-1.84a2.1,2.1,0,0,0,.14,1.31,1.41,1.41,0,0,0,.48.48,2.36,2.36,0,0,1-1.35.59,2.07,2.07,0,0,0,.14-1.66.93.93,0,0,1,.05-.8c.1-.25-.07-.38-.05-.56a1.92,1.92,0,0,0,.05-.41c0-.1-.2-.22-.32-.39a9.57,9.57,0,0,0-1.53-1.43,5.09,5.09,0,0,0-2.45-.73,11.56,11.56,0,0,0-3.45.74s5.78-1.75,7.1,3a5.43,5.43,0,0,1,0,1.45s-1.1-.79-1.29-1c0,0-2.89-4.62-6.91-2.05l-.79,0a3.54,3.54,0,0,1,1-1.8,12.94,12.94,0,0,1,1.88-1.7c.72-.53,3-2.37,3.34-2.78a8.42,8.42,0,0,1,1.78-1.29,5.85,5.85,0,0,1,2.47-.46,7.21,7.21,0,0,0-1.77,1.4,13.55,13.55,0,0,1-1.82,1.65c-.41.29-1.05.76-1.36,1a9.9,9.9,0,0,1-.95.67A20.9,20.9,0,0,0,249,274" transform="translate(-226.93 -235.01)"/><path class="cls-5" d="M243.63,276.07l-.36,0a5.46,5.46,0,0,0-3.2-2.28c-1.2-.48-1.39-.51-2.51-.87s-2.19-.69-2.45-1.12-.71-1.11-.71-1.11a7.4,7.4,0,0,0,2.21.7,8.62,8.62,0,0,1,1.37.33,15.51,15.51,0,0,1,3.73,1.81,4.33,4.33,0,0,1,1,1c.15.38-.29-.59-.29-.59l-.59-.66a10.43,10.43,0,0,0-2.52-1.92c-1.86-.89-1.85-1.38-2.24-2.26a7.5,7.5,0,0,1,2.67,1c.34.21.39.27.73.48a10.91,10.91,0,0,1,1.8,1.85" transform="translate(-226.93 -235.01)"/><path class="cls-5" d="M242.28,272.48a9.29,9.29,0,0,1,2,3.59h-.61" transform="translate(-226.93 -235.01)"/><path class="cls-5" d="M240.88,274.87a4,4,0,0,0-3.8.47,3.21,3.21,0,0,0-1.36,3.31A14.77,14.77,0,0,0,237,277.4a8,8,0,0,1,1.14-1.45,2.93,2.93,0,0,1,4,.17l.44,0h.32a4,4,0,0,0-2.48-1.85,5.93,5.93,0,0,0-4,0,5.51,5.51,0,0,0-2.31,1.31c-.77.63-1.1,1.33-1.29,1.41s-.53.22-.53.22a1.9,1.9,0,0,0-1.14,1.59c-.17.83-.22,2,.17,1.59a2.49,2.49,0,0,0,.67-1.32c.06-.43.06-.65.3-.87a1.4,1.4,0,0,1,.45-.29,1.1,1.1,0,0,1-.26.48.82.82,0,0,0-.13.47,3.77,3.77,0,0,1-.57,1.43c-.24.24-.25.85.34.39s1.5-1,1.43-2.21c0-.8-.17-1,.25-1.72a6.59,6.59,0,0,1,3.68-2.19,5,5,0,0,1,3.34.35" transform="translate(-226.93 -235.01)"/><path class="cls-2" d="M243.18,272.7a1,1,0,0,0,.28.26c-.37.68-.45,1.15-2,1.28.27-1.1.47-1.65.85-1.84a1,1,0,0,1,.74,0l0,.1.09.25" transform="translate(-226.93 -235.01)"/><path class="cls-2" d="M244.11,273a.71.71,0,0,0,.35-.18,2.1,2.1,0,0,1-.28,2.48,1.93,1.93,0,0,1-.72-2.38.63.63,0,0,0,.29.12l.36,0" transform="translate(-226.93 -235.01)"/><rect class="cls-4" x="15.75" y="41.77" width="4.62" height="1.21"/><rect class="cls-4" x="15.62" y="54.82" width="4.78" height="0.69"/><polygon class="cls-4" points="14.95 21.27 20.5 21.25 21.5 21.71 20.49 21.9 21.06 22.46 20.15 22.35 20.73 23.17 19.84 22.78 20.08 23.62 19.32 23.06 19.39 23.86 18.75 23.47 18.49 24.48 18.16 23.78 17.84 24.32 17.59 23.7 16.82 24.38 16.87 23.51 16.19 23.83 16.13 23.04 15.54 23.45 15.54 22.92 14.89 23.28 15.09 22.55 14.17 22.78 14.77 21.96 13.9 21.91 14.95 21.27"/><path class="cls-4" d="M242.12,259.94l-.79.64v3.76a5.51,5.51,0,0,0,1.24.64,3.33,3.33,0,0,0,.93.16,2,2,0,0,1,1.13.33,3.06,3.06,0,0,1,1.08-.32,4.16,4.16,0,0,0,.87,0,1.78,1.78,0,0,0,1.35-.58v-4.16l-.27.16v-.3l-.25.14v-.28l-.28.16v3.61a1.43,1.43,0,0,1-.74.34,1.87,1.87,0,0,1-.65,0,3.2,3.2,0,0,0-1.13.27,2.78,2.78,0,0,0-1.2-.25,2,2,0,0,1-1.29-.41v-3.88" transform="translate(-226.93 -235.01)"/><path class="cls-2" d="M243.33,260.28a5,5,0,0,1-1.21-.41v3.95a1.83,1.83,0,0,0,1.19.4,2.5,2.5,0,0,1,1.3.26,2.66,2.66,0,0,1,1.5-.24,1.86,1.86,0,0,0,1-.39v-3.72a2.17,2.17,0,0,1-1,.25,2.09,2.09,0,0,0-1.5.12l-.7-.18Z" transform="translate(-226.93 -235.01)"/><path class="cls-6" d="M243.32,258.58a2.45,2.45,0,0,0,.51-1.36v-1l2,0a2.72,2.72,0,0,0-.18,1.12c.26,1.93.08,1.9.08,1.9-.34.78-.66,1.69-.66,1.69l.11.87c.14.36-.2,1.06-.51,1.1s-.3-.43-.3-.43,0,.08-.13-.42a12.12,12.12,0,0,1-.3-1.76,2.53,2.53,0,0,0-.51-.06,2.38,2.38,0,0,1-.93-.24,12,12,0,0,1,.7-1.33l.06-.09" transform="translate(-226.93 -235.01)"/><path class="cls-2" d="M233.87,276.72c-.42.74-.3.92-.26,1.72.07,1.22-.83,1.75-1.42,2.21s-.58-.16-.34-.39a3.82,3.82,0,0,0,.56-1.43.86.86,0,0,1,.13-.48.85.85,0,0,0,.26-.47,1.43,1.43,0,0,0-.44.29c-.24.22-.24.44-.31.86a2.53,2.53,0,0,1-.66,1.33c-.39.41-.34-.77-.17-1.6a1.85,1.85,0,0,1,1.14-1.58l.52-.22.34-.37Z" transform="translate(-226.93 -235.01)"/><path class="cls-2" d="M256.42,277.24c-.11.15.06.05,0,.31a.92.92,0,0,0-.05.8,2.07,2.07,0,0,1-.14,1.66,2.36,2.36,0,0,0,1.35-.59,1.41,1.41,0,0,1-.48-.48,2,2,0,0,1-.14-1.31c.09,1.75.9,1.82,2.13,1.84a4.22,4.22,0,0,1-1.09-.41,1,1,0,0,1-.44-.54,4.68,4.68,0,0,0-.29-1.09s.25.15.39.83.78.9,1.71,1.07a1.19,1.19,0,0,1-.42-.57,4.45,4.45,0,0,0-.13-.79,2,2,0,0,0-.94-.9c.77.17,1,.73,1.21,1.46,0,0,.4,0,1.09-.66a1.59,1.59,0,0,1-1.08-.44,1.87,1.87,0,0,0-.86-.66c-.24-.06-.46.05-.6-.16A2.5,2.5,0,0,0,256.42,277.24Z" transform="translate(-226.93 -235.01)"/><path class="cls-3" d="M232.74,300.56a1.22,1.22,0,0,0,1-.55,1,1,0,0,1,1-.32c.43.11.58.1.76,0s.16-.19.66-.21c-.66-.74-1.1-.52-1.67-.4a1.26,1.26,0,0,1-1.38-.76l-.45.06c-.27-.24-.84-.06-.84-.06s-1,.39-1.1-.39.27-.83.27-.83c.18,0,.45-.45.45-.45.09-.51.47-.48.47-.48.21-.14,1.08.24,1.08.24s0,.12.56.06.51-.44.51-.44c-.06-.6-.75-.42-.75-.42.48-.63,2,.12,2,.12a1.48,1.48,0,0,1,1.67-.48,1.59,1.59,0,0,1,1.82-.36c0-.89,1.64-1.31,1.64-1.31.23-.06.77-.89.77-.89.95,2.53-.75,2.71-.75,2.71l.76-.11a2,2,0,0,0,1.45-1.51c.19,1.62.05,2.15-.54,2.73a1.53,1.53,0,0,0,.93-.13,1.84,1.84,0,0,1-1.41,1.12,3.38,3.38,0,0,0,1.73-.5,2.1,2.1,0,0,1-1,1.25c.62-.17.88-.3,1-.42-.35,1.15-.95,1.36-1.3,1.46a2.28,2.28,0,0,0,1.22-.29c-.55,1.22-.95,1.3-1.15,1.43a1.29,1.29,0,0,1-1.15-.13c.62.44.87.68,1.12.84a1.75,1.75,0,0,1-1.71-.19,1.38,1.38,0,0,0,.05.77,1,1,0,0,1-.61-.37l-.05-.05a6.1,6.1,0,0,1-2.84-.08,1.16,1.16,0,0,0-1.06.05,2,2,0,0,1-1.12.08.77.77,0,0,0-.73.16c-.24.18-.71.71-1.46-.08-.21-.24-.29-.19-.49-.21s-.22-.51-.22-.56l.85-.07" transform="translate(-226.93 -235.01)"/><path class="cls-2" d="M233.07,298.32" transform="translate(-226.93 -235.01)"/><path class="cls-2" d="M233.15,298.27a1.25,1.25,0,0,0,1.39.76c.56-.11,1-.33,1.66.41-.5,0-.48.08-.66.21s-.32.14-.76,0a1,1,0,0,0-1,.32c-.25.27-.4.49-.88.45" transform="translate(-226.93 -235.01)"/><path class="cls-1" d="M234.39,299.65a5.51,5.51,0,0,1-1.46-.47,1.73,1.73,0,0,0-1.1-.1c-.6.08-.5.5-1.58.07-.23-.1-.53-.12-1.21.32a.62.62,0,0,0,.09,1.16c1.18.5,1.49.63,2.1.26a1.33,1.33,0,0,1,1-.29,8.27,8.27,0,0,0,1-.15.75.75,0,0,0,.48-.35,1.35,1.35,0,0,1,.71-.45" transform="translate(-226.93 -235.01)"/><path class="cls-2" d="M237.29,297.57a.49.49,0,0,0,.48-.48.48.48,0,0,0-.48-.47.47.47,0,0,0-.47.47.48.48,0,0,0,.47.48" transform="translate(-226.93 -235.01)"/><path class="cls-2" d="M237.29,297.09" transform="translate(-226.93 -235.01)"/><path class="cls-2" d="M232.17,298.19a2.15,2.15,0,0,0,0,.87,1.18,1.18,0,0,1-.61-.71" transform="translate(-226.93 -235.01)"/><path class="cls-2" d="M232.91,300.53c-.47-.38-.18-1.17-.18-1.17.26.32.42.66.9.79a1.72,1.72,0,0,1-.29.25,2.51,2.51,0,0,1-.43.13" transform="translate(-226.93 -235.01)"/><path class="cls-2" d="M232,298.24a1.82,1.82,0,0,0,.56,1c.07-.45-.06-.45.28-.84" transform="translate(-226.93 -235.01)"/><path class="cls-2" d="M232.52,298.27a1.85,1.85,0,0,0,.63,1.17c0-.67.23-.83.23-.83" transform="translate(-226.93 -235.01)"/><path class="cls-2" d="M236.2,299.44a1.08,1.08,0,0,0-.6.16c-.11.08-.22.18-.33.16a2.12,2.12,0,0,1,.35-1.24,1.41,1.41,0,0,0,.58.92" transform="translate(-226.93 -235.01)"/><path class="cls-2" d="M233.68,298.47a.31.31,0,0,0-.16.43c.08.12.07.07.26.16a.66.66,0,0,0,.6-.06.86.86,0,0,0,.45-.65c.1-.63-.05-1.17-1-1.25a.81.81,0,0,1-.18,1.37" transform="translate(-226.93 -235.01)"/><path class="cls-2" d="M234.73,299a1,1,0,0,0,.37-.75.88.88,0,0,1,.18.65,2,2,0,0,0-.55.1" transform="translate(-226.93 -235.01)"/><path class="cls-3" d="M250.59,300.56a1.24,1.24,0,0,0,1-.55,1,1,0,0,1,1-.32c.44.11.58.1.76,0s.16-.19.66-.21c-.66-.74-1.1-.52-1.66-.4a1.28,1.28,0,0,1-1.39-.76l-.45.06c-.26-.24-.83-.06-.83-.06s-1,.39-1.1-.39.26-.83.26-.83c.18,0,.45-.45.45-.45.09-.51.48-.48.48-.48.21-.14,1.07.24,1.07.24s0,.12.57.06.51-.44.51-.44c-.06-.6-.75-.42-.75-.42.48-.63,2,.12,2,.12a1.46,1.46,0,0,1,1.66-.48,1.59,1.59,0,0,1,1.82-.36c0-.89,1.64-1.31,1.64-1.31.24-.06.78-.89.78-.89,1,2.53-.76,2.71-.76,2.71l.76-.11a2,2,0,0,0,1.45-1.51c.2,1.62,0,2.15-.53,2.73a1.49,1.49,0,0,0,.92-.13,1.85,1.85,0,0,1-1.4,1.12,3.33,3.33,0,0,0,1.72-.5,2.13,2.13,0,0,1-1,1.25,2.13,2.13,0,0,0,1-.42c-.36,1.15-.95,1.36-1.31,1.46a2.33,2.33,0,0,0,1.23-.29c-.55,1.22-1,1.3-1.15,1.43a1.31,1.31,0,0,1-1.16-.13c.63.44.87.68,1.13.84a1.74,1.74,0,0,1-1.71-.19,1.29,1.29,0,0,0,.05.77,1,1,0,0,1-.62-.37l-.05-.05a6.06,6.06,0,0,1-2.83-.08,1.18,1.18,0,0,0-1.07.05,2,2,0,0,1-1.11.08.77.77,0,0,0-.73.16c-.24.18-.71.71-1.47-.08-.21-.24-.29-.19-.48-.21s-.23-.51-.23-.56l.86-.07" transform="translate(-226.93 -235.01)"/><path class="cls-2" d="M250.92,298.32" transform="translate(-226.93 -235.01)"/><path class="cls-2" d="M251,298.27a1.24,1.24,0,0,0,1.38.76c.57-.11,1-.33,1.67.41-.5,0-.49.08-.66.21s-.33.14-.77,0a1,1,0,0,0-1,.32c-.26.27-.4.49-.89.45" transform="translate(-226.93 -235.01)"/><path class="cls-1" d="M252.24,299.65a5.49,5.49,0,0,1-1.47-.47,1.71,1.71,0,0,0-1.1-.1c-.6.08-.5.5-1.58.07-.23-.1-.52-.12-1.21.32a.62.62,0,0,0,.1,1.16c1.18.5,1.48.63,2.09.26a1.33,1.33,0,0,1,1-.29,7.65,7.65,0,0,0,1-.15.8.8,0,0,0,.49-.35,1.35,1.35,0,0,1,.71-.45" transform="translate(-226.93 -235.01)"/><path class="cls-2" d="M255.14,297.57a.48.48,0,0,0,.47-.48.47.47,0,0,0-.94,0,.48.48,0,0,0,.47.48" transform="translate(-226.93 -235.01)"/><path class="cls-2" d="M255.14,297.09" transform="translate(-226.93 -235.01)"/><path class="cls-2" d="M250,298.19a2.35,2.35,0,0,0,0,.87,1.18,1.18,0,0,1-.61-.71" transform="translate(-226.93 -235.01)"/><path class="cls-2" d="M250.75,300.53c-.46-.38-.17-1.17-.17-1.17.26.32.42.66.9.79a2.36,2.36,0,0,1-.29.25,2.88,2.88,0,0,1-.44.13" transform="translate(-226.93 -235.01)"/><path class="cls-2" d="M249.88,298.24a1.76,1.76,0,0,0,.57,1c.06-.45-.07-.45.27-.84" transform="translate(-226.93 -235.01)"/><path class="cls-2" d="M250.37,298.27a1.8,1.8,0,0,0,.63,1.17c0-.67.22-.83.22-.83" transform="translate(-226.93 -235.01)"/><path class="cls-2" d="M254.05,299.44a1,1,0,0,0-.6.16c-.11.08-.23.18-.34.16a2.2,2.2,0,0,1,.35-1.24,1.4,1.4,0,0,0,.59.92" transform="translate(-226.93 -235.01)"/><path class="cls-2" d="M251.53,298.47a.31.31,0,0,0-.16.43c.08.12.06.07.26.16a.64.64,0,0,0,.59-.06.84.84,0,0,0,.45-.65c.1-.63,0-1.17-1-1.25a.81.81,0,0,1-.18,1.37" transform="translate(-226.93 -235.01)"/><path class="cls-2" d="M252.58,299a1.06,1.06,0,0,0,.37-.75.94.94,0,0,1,.18.65,2,2,0,0,0-.55.1" transform="translate(-226.93 -235.01)"/><path class="cls-3" d="M247.07,325.17a1.26,1.26,0,0,0,1-.54.94.94,0,0,1,1-.32c.44.11.58.09.76,0s.16-.19.66-.21c-.66-.74-1.09-.51-1.66-.4a1.27,1.27,0,0,1-1.39-.76L247,323c-.27-.24-.84-.06-.84-.06s-1,.39-1.1-.38.26-.84.26-.84c.18,0,.45-.45.45-.45.09-.5.48-.47.48-.47.21-.15,1.07.24,1.07.24s0,.11.57.06.51-.45.51-.45c-.06-.6-.75-.42-.75-.42.48-.62,2,.12,2,.12a1.5,1.5,0,0,1,1.67-.48,1.59,1.59,0,0,1,1.82-.36c0-.89,1.64-1.31,1.64-1.31.23-.06.77-.89.77-.89.95,2.53-.76,2.71-.76,2.71l.76-.11a2,2,0,0,0,1.45-1.5c.2,1.61.05,2.15-.53,2.72a1.59,1.59,0,0,0,.92-.12,1.82,1.82,0,0,1-1.4,1.11,3.42,3.42,0,0,0,1.73-.5,2.24,2.24,0,0,1-1,1.26,2.39,2.39,0,0,0,1-.42c-.36,1.14-1,1.35-1.31,1.45a2.3,2.3,0,0,0,1.23-.29c-.55,1.23-.95,1.31-1.15,1.44a1.35,1.35,0,0,1-1.16-.13c.63.43.87.67,1.13.84a1.74,1.74,0,0,1-1.71-.2,1.33,1.33,0,0,0,.05.78,1,1,0,0,1-.61-.37l-.05-.05a6.23,6.23,0,0,1-2.84-.08,1.18,1.18,0,0,0-1.07,0,2,2,0,0,1-1.11.09.72.72,0,0,0-.73.16.91.91,0,0,1-1.47-.08c-.21-.25-.29-.2-.48-.21s-.23-.52-.23-.56l.86-.08" transform="translate(-226.93 -235.01)"/><path class="cls-2" d="M247.4,322.94" transform="translate(-226.93 -235.01)"/><path class="cls-2" d="M247.48,322.89a1.27,1.27,0,0,0,1.39.76c.56-.12,1-.34,1.66.4-.5,0-.49.08-.66.21s-.33.15-.76,0a1,1,0,0,0-1,.33c-.26.27-.4.48-.89.45" transform="translate(-226.93 -235.01)"/><path class="cls-1" d="M248.72,324.26a5.49,5.49,0,0,1-1.47-.47,1.78,1.78,0,0,0-1.1-.1c-.59.09-.5.51-1.58.07-.23-.09-.52-.12-1.21.32a.62.62,0,0,0,.1,1.16c1.18.51,1.48.63,2.1.26a1.32,1.32,0,0,1,1-.29,6.31,6.31,0,0,0,1-.14.82.82,0,0,0,.49-.36,1.42,1.42,0,0,1,.71-.45" transform="translate(-226.93 -235.01)"/><path class="cls-2" d="M251.62,322.18a.48.48,0,1,0-.47-.48.47.47,0,0,0,.47.48" transform="translate(-226.93 -235.01)"/><path class="cls-2" d="M251.62,321.7" transform="translate(-226.93 -235.01)"/><path class="cls-2" d="M246.49,322.81a2.38,2.38,0,0,0,0,.87,1.2,1.2,0,0,1-.62-.71" transform="translate(-226.93 -235.01)"/><path class="cls-2" d="M247.24,325.15c-.47-.39-.18-1.18-.18-1.18.26.32.42.66.9.79a3.33,3.33,0,0,1-.29.26s-.43.13-.43.13" transform="translate(-226.93 -235.01)"/><path class="cls-2" d="M246.37,322.86a1.76,1.76,0,0,0,.56,1c.06-.45-.07-.45.27-.84" transform="translate(-226.93 -235.01)"/><path class="cls-2" d="M246.85,322.88a1.86,1.86,0,0,0,.63,1.18c0-.68.22-.84.22-.84" transform="translate(-226.93 -235.01)"/><path class="cls-2" d="M250.53,324.05a1,1,0,0,0-.6.16c-.11.08-.23.18-.34.16a2.2,2.2,0,0,1,.36-1.24,1.37,1.37,0,0,0,.58.92" transform="translate(-226.93 -235.01)"/><path class="cls-2" d="M248,323.08a.32.32,0,0,0-.16.44c.08.11.06.06.26.16a.69.69,0,0,0,.59-.07.83.83,0,0,0,.46-.64c.09-.64,0-1.18-1-1.26a.81.81,0,0,1-.18,1.37" transform="translate(-226.93 -235.01)"/><path class="cls-2" d="M249.06,323.63a1,1,0,0,0,.37-.74.91.91,0,0,1,.18.64,2,2,0,0,0-.55.1" transform="translate(-226.93 -235.01)"/><path d="M281.43,312,280,302.36l1.55-1.26a.16.16,0,0,0,.06-.13v-2.74a.16.16,0,0,0-.05-.11.17.17,0,0,0-.12-.05h-1l-.28-1.71.28-.86s0,0,0,0v-1a.12.12,0,0,0-.12-.12h-.44a.12.12,0,0,0-.11.12v.45h-.27v-.46a.11.11,0,0,0-.12-.11h-.52a.12.12,0,0,0-.12.11v.46h-.26v-.46a.11.11,0,0,0-.12-.11h-.5a.11.11,0,0,0-.11.11v1h0l.27.86-.28,1.71h-.87l-.29-1.69.31-.85h0v-1a.11.11,0,0,0-.11-.12h-.44a.12.12,0,0,0-.12.12v.45h-.27v-.46a.11.11,0,0,0-.11-.12h-.53a.11.11,0,0,0-.11.12v.46h-.27v-.46a.11.11,0,0,0-.11-.11h-.5a.11.11,0,0,0-.12.11v1h0v0l.27.84-.29,1.71h-.92l-.29-1.71.28-.81s0,0,0,0v-1a.12.12,0,0,0-.12-.12h-.44a.11.11,0,0,0-.11.12V295h-.27v-.46a.12.12,0,0,0-.12-.12h-.52a.12.12,0,0,0-.12.12V295h-.26v-.46a.11.11,0,0,0-.12-.11h-.5a.11.11,0,0,0-.11.11v1a0,0,0,0,0,0,0h0l.28.81-.28,1.71h-.88a.16.16,0,0,0-.16.16V301a.16.16,0,0,0,.06.13l1.52,1.24-1.45,9.57h0l-2.08,2a.18.18,0,0,0-.05.12v6.18a.17.17,0,0,0,.16.17h15.62a.17.17,0,0,0,.16-.17v-6.12a.16.16,0,0,0,0-.12Zm-.35-.14h-1.84V311h1.7Zm-8.2-13.5v.32H271v-.32Zm-1.27-1.14c0-.26.18-.38.31-.38h0c.13,0,.27.12.3.37V298h-.61Zm1.27,1.63v.5H271v-.5Zm-1.16.67h2v1.25h-2Zm2,1.42.11,1.15h-1.65l-.43-1.15Zm2.74-2.58v.3h-1.87v-.3Zm-1.24-1.13c0-.27.18-.39.31-.39h0c.12,0,.27.12.3.38V298h-.62ZM280,298.4v.3h-1.86v-.3Zm-1.25-1.15c0-.27.18-.38.31-.38h0c.12,0,.27.12.29.37V298h-.61Zm1.25,1.62v.52h-1.86v-.52Zm-.82.69v1.25h-1.87v-1.25Zm-.06,1.42-.55,1.15h-1.43l.16-1.15Zm-5.42,7.68h3.59v1h-3.59Zm-.57-.17v-1h1.17v1Zm1.45-6h1.84v1.12h-1.84Zm-.6-.33-.12-1.15h1.55v1.15Zm1.6-1.15h1.55l-.16,1.15h-1.39Zm1.64,2.77V305h-.47a1.22,1.22,0,0,0-2.44,0h-.53v-1.28Zm.8,1.45v1h-1.26v-1Zm-3.72,0v1H273v-1Zm2.47,3.29v-1h1.11v1Zm.69.17h1.58v1h-1.58Zm.58-.17v-1h1.52v1Zm.63-1.15h-1.91v-1h1.91Zm-.48-1.16v-1h1v1Zm.55-1.15h-1.35v-1.28h1.35Zm-.41-1.45v-1.12h1.27l.17,1.12Zm-.17-1.12v1.12h-1.57v-1.12Zm-2.58-1.65v-1.25h1.57v1.25Zm.85-1.94v.52h-1.87v-.52Zm-1,.69v1.25h-1.56v-1.25Zm-1,2.9v1.12h-1.57v-1.12Zm-1.74,0v1.12h-1.46l.17-1.12Zm-.42,1.29h1.36V305h-1.36Zm.56,1.45v1h-1v-1Zm-.47,1.16h2v1h-2Zm.62,1.17v1H271.5v-1Zm-1,1.13h1.54v1H272Zm.69,1.19v1h-1.58v-1ZM272,311h1.69v.9H272Zm.86-.17v-1h1.85v1Zm1,.17h1.57v.9h-1.57Zm1-.17v-1h1.28v1Zm.72.17h1.55v.9h-1.55Zm.73-.17v-1h1.85v1Zm1,.17h1.73v.9h-1.73Zm1-.17v-1h1.57v1Zm2.54,0h-.8v-1h.65Zm-.17-1.15h-1.5v-1h1.34Zm-.18-1.19h-.8v-1h.65Zm-.18-1.15h-1.5v-1h1.35Zm-.18-1.16h-.79v-1h.63ZM280,305h-1.09v-1.28h.89Zm-.32-2.9h-.92l.55-1.15h1.79Zm1.53-1.32h-1.86v-1.25h1.86Zm-1-2.41h1v1h-1ZM278,294.57h.27V295a.12.12,0,0,0,.11.12h.5A.13.13,0,0,0,279,295v-.46h.29V295a.12.12,0,0,0,.11.12h.5A.12.12,0,0,0,280,295v-.45h.21v.77H278Zm0,1h2.14l-.24.71h-1.67Zm.23.83h1.67l.26,1.56h-.66v-.74c0-.32-.24-.47-.41-.47h0c-.18,0-.38.14-.42.48V298H278Zm-1.61,2H278v1h-1.36Zm-.28-2.09h-1.67l-.22-.7h2.14Zm-1.93-.93v-.78h.27v.46a.11.11,0,0,0,.12.11h.49a.11.11,0,0,0,.12-.11v-.47h.29v.47a.11.11,0,0,0,.12.11h.5a.11.11,0,0,0,.11-.11v-.46h.21v.78Zm.26,1h1.67l.26,1.57H276v-.74c0-.33-.24-.48-.41-.48h0c-.18,0-.38.15-.42.49V298h-.69Zm-1.63,2h1.37v1h-1.37Zm-2.26-3.77h.27v.46a.11.11,0,0,0,.11.11h.5a.12.12,0,0,0,.12-.11v-.47h.29v.47a.11.11,0,0,0,.11.11h.5a.11.11,0,0,0,.12-.11v-.46H273v.78h-2.23Zm0,1H273l-.23.67h-1.67Zm.23.78h1.66L273,298h-.67v-.73c0-.33-.23-.48-.41-.48h0c-.18,0-.38.14-.42.48V298h-.69Zm-1.23,2h1v1h-1Zm0,1.16h1.7v1.25h-1.7Zm.07,1.42h1.66l.43,1.15h-.67Zm1.3,2.77h.9V305H271ZM271,305.2h.69v1h-.83Zm-.17,1.16h1.38v1h-1.53Zm-.18,1.17h.69v1h-.83Zm-.17,1.13h1.38v1h-1.53Zm-.18,1.19H271v1h-.82Zm-.17,1.15h1.73v.9H270Zm-.32,1.22h11.35l.76.76H269Zm-1,.94h13.25l.82.82H268Zm8.74,4.74v-1h1.63v1Zm.69.17v1h-.69v-1Zm-.69-1.31v-1h.69v1Zm2.73-1v1h-1.87v-1h1.87Zm-.93-.17v-1.43h1.86v1.43Zm-.94,2.48h1.85v1h-1.85Zm.94-.17v-1h2v1Zm1.08.17h1.85v1h-1.85Zm0-1.31v-1h1.85v1Zm-8.94,1.14h-2v-1h2Zm.93.17v1h-1.83v-1Zm-2,0v1h-1.84v-1Zm0-2.31v1h-1.86v-1Zm-.79-.17v-1.43h1.86v1.43Zm1,1.17v-1h1.85v1Zm-2.81-2.6h1.68v1.43h-1.68Zm0,1.6h.61v1h-.61Zm0,1.17h1.56v1h-1.56Zm0,1.14h.63v1h-.63Zm1.56,2h-1.56v-.85h1.56Zm2.16,0h-2v-.85h2Zm1.81,0h-1.63v-.85h1.63Zm0-1h-.72v-1h.72Zm0-1.17h-1.65v-1h1.65Zm0-1.14h-.7v-1h.7Zm2.22-2.08a2.6,2.6,0,0,0-2.1.91h-1.77v-1.43h7.5v1.43h-1.75A2.41,2.41,0,0,0,275.58,314.68Zm3.63,5.41h-1.63v-.85h1.63Zm2.17,0h-2v-.85h2Zm1.74,0h-1.57v-.85h1.57Zm0-1h-.64v-1h.64Zm0-1.17h-1.57v-1h1.57Zm0-1.14h-.62v-1h.62Zm0-1.17h-1.7v-1.43h1.66l0,0Z" transform="translate(-226.93 -235.01)"/><path d="M237.71,300a.92.92,0,0,1-.73-.63l0-.07c-.05-.28-.1-.52-.51-.58a.07.07,0,0,0-.06,0,.06.06,0,0,0,.05.06c.33.05.37.23.43.5v.07a1,1,0,0,0,.81.7,1.54,1.54,0,0,1,.73.55l0,0h0a0,0,0,0,0,0-.07A1.58,1.58,0,0,0,237.71,300Z" transform="translate(-226.93 -235.01)"/><path d="M238.41,296.35s.11-.27.37-.4a1.52,1.52,0,0,0-1.14-.13C238,295.85,238.11,296.05,238.41,296.35Z" transform="translate(-226.93 -235.01)"/><path d="M236.07,300.25s0-.05,0-.05h0a0,0,0,0,0,0,0,1.16,1.16,0,0,0,.06.58l.05,0h0s0,0,0-.07A1,1,0,0,1,236.07,300.25Z" transform="translate(-226.93 -235.01)"/><path d="M237.16,300.29a.06.06,0,0,0,0,.07,1,1,0,0,1,.26.53,0,0,0,0,0,0,.05h0a.06.06,0,0,0,.05-.06,1,1,0,0,0-.3-.59A0,0,0,0,0,237.16,300.29Z" transform="translate(-226.93 -235.01)"/><path d="M236.39,300s0-.05,0-.06,0,0,0,0a1,1,0,0,0,.15.71l0,0h0a0,0,0,0,0,0-.06A1.11,1.11,0,0,1,236.39,300Z" transform="translate(-226.93 -235.01)"/><path d="M233.19,301.35c-.16-.07-.24-.11-.38-.4,0,0,0,0-.07,0a0,0,0,0,0,0,.06.72.72,0,0,0,.42.45l.12.06h0l0,0a0,0,0,0,0,0-.07Z" transform="translate(-226.93 -235.01)"/><path d="M237.63,300.31a.05.05,0,0,0-.07,0,0,0,0,0,0,0,.06.9.9,0,0,1,.5.45l0,.08s0,0,0,0h0a0,0,0,0,0,0-.07l0-.08A1,1,0,0,0,237.63,300.31Z" transform="translate(-226.93 -235.01)"/><path d="M235.73,300.24s-.06,0-.06,0a1.63,1.63,0,0,0,0,.63s0,0,.05,0h0s0,0,0-.06a1.8,1.8,0,0,1,0-.59A.08.08,0,0,0,235.73,300.24Z" transform="translate(-226.93 -235.01)"/><path d="M235.37,300.34a.07.07,0,0,0-.06,0,4.42,4.42,0,0,0,0,.66s0,0,.05,0h0a0,0,0,0,0,0-.05,4.1,4.1,0,0,1,0-.64S235.4,300.34,235.37,300.34Z" transform="translate(-226.93 -235.01)"/><path d="M233.63,301.24a.43.43,0,0,1-.27-.35,0,0,0,0,0-.06,0s0,0,0,.06a.52.52,0,0,0,.34.41h.07a0,0,0,0,0,0-.07Z" transform="translate(-226.93 -235.01)"/><path d="M234.68,300.53a0,0,0,0,0,0-.06h0a.07.07,0,0,0,0,0,1.93,1.93,0,0,0,0,.55.07.07,0,0,0,.05,0h0s.05,0,0-.06A1.68,1.68,0,0,1,234.68,300.53Z" transform="translate(-226.93 -235.01)"/><path d="M233.73,300.82a0,0,0,0,0,0,0s-.05,0-.05,0a.42.42,0,0,0,.2.31l0,0,0,0,0,0a0,0,0,0,0,0-.07l0,0C233.83,301,233.73,300.93,233.73,300.82Z" transform="translate(-226.93 -235.01)"/><path d="M229.09,300.72a4.34,4.34,0,0,0,1.49.49,1.38,1.38,0,0,0,.7-.23,1.9,1.9,0,0,1,.52-.25c0,.11,0,.53.32.55h.1c.12,0,.17,0,.31.17a1.22,1.22,0,0,0,.85.45,1.11,1.11,0,0,0,.69-.3l.07-.06a.61.61,0,0,1,.63-.14,2.11,2.11,0,0,0,1.19-.09,1.12,1.12,0,0,1,1,0,5.83,5.83,0,0,0,2.84.09l0,0a1,1,0,0,0,.65.38.1.1,0,0,0,.1,0,.11.11,0,0,0,0-.12,1.12,1.12,0,0,1,0-.54,1.86,1.86,0,0,0,1.67.12.11.11,0,0,0,.06-.09.09.09,0,0,0-.05-.1c-.11-.07-.22-.16-.36-.27l-.23-.18a1.08,1.08,0,0,0,.63-.08l.08-.05c.23-.13.61-.34,1.1-1.44a.09.09,0,0,0,0-.12.09.09,0,0,0-.13,0,1.24,1.24,0,0,1-.54.2,2.39,2.39,0,0,0,.8-1.26.11.11,0,0,0,0-.12.12.12,0,0,0-.13,0,.94.94,0,0,1-.35.2,3,3,0,0,0,.54-.93.1.1,0,0,0,0-.12.09.09,0,0,0-.13,0,2,2,0,0,1-.82.33,2.4,2.4,0,0,0,.66-.82.11.11,0,0,0,0-.13.13.13,0,0,0-.12,0,1.36,1.36,0,0,1-.65.15c.5-.58.59-1.21.42-2.66a.11.11,0,0,0-.1-.09.12.12,0,0,0-.11.07,1.85,1.85,0,0,1-1.36,1.43h-.1a1.48,1.48,0,0,0,.3-.38,2.29,2.29,0,0,0-.09-2.17.1.1,0,0,0-.17,0,4.11,4.11,0,0,0-.34.44,1.19,1.19,0,0,1-.87.59,1.81,1.81,0,0,0-1.26,1.1,1.31,1.31,0,0,0-.55-.14,1.68,1.68,0,0,0-1.19.52,1.27,1.27,0,0,0-1.44.3c-.19.24-.2.23-.36.14l-.23-.13a1.63,1.63,0,0,0-1.68.08.1.1,0,0,0,0,.12.12.12,0,0,0,.11.07.78.78,0,0,1,.59.1.33.33,0,0,1,.07.24.3.3,0,0,1-.1.21.41.41,0,0,1-.27.1l-.25,0-.39,0a.73.73,0,0,1-.19-.07,1.33,1.33,0,0,0-.68-.18h0a.76.76,0,0,0-.67.34l0,0a.87.87,0,0,1-.51.62.58.58,0,0,0-.26.37,1.26,1.26,0,0,0,.08.82.81.81,0,0,0,.67.3l.16,0a1.42,1.42,0,0,0,.4.51h-.16a1.46,1.46,0,0,0-.45.15c-.22.11-.39.2-1.08-.08-.28-.12-.62-.11-1.3.33a.8.8,0,0,0-.4.71A.76.76,0,0,0,229.09,300.72Zm13-4.33a.11.11,0,0,0,0,.11.11.11,0,0,0,.08.07,1.75,1.75,0,0,0,.7,0,1.66,1.66,0,0,1-1.18.81.11.11,0,0,0-.09.12.13.13,0,0,0,.12.09,4.92,4.92,0,0,0,1.49-.35,1.86,1.86,0,0,1-.82.91.09.09,0,0,0,0,.05,7.8,7.8,0,0,1-1.65,0,7.55,7.55,0,0,0,1-1.36,0,0,0,0,0,0,0s0,0-.06,0a1.87,1.87,0,0,1-.51.08l.07,0a3.55,3.55,0,0,0,1.5-1.65A1.78,1.78,0,0,1,242.11,296.39Zm-.82-1.76a1.2,1.2,0,0,1-.63.59l-.17,0-.16,0a4,4,0,0,0,.71-.81v0s0,0,0,0-.25,0-.51,0a2.78,2.78,0,0,0,.94-.79A1.68,1.68,0,0,1,241.29,294.63ZM233,296.46l.41,0,.24,0a.62.62,0,0,0,.42-.14.5.5,0,0,0,.18-.36.49.49,0,0,0-.14-.4.51.51,0,0,0-.33-.15,1.55,1.55,0,0,1,1.13.12l.2.11c.23.14.36.17.63-.19a1,1,0,0,1,1.11-.25.39.39,0,0,0-.08.1.11.11,0,0,0,0,.14.1.1,0,0,0,.14,0,1.69,1.69,0,0,1,1.25-.71h0a1.32,1.32,0,0,1,.57.16l0,0a1,1,0,0,1,.26.22.1.1,0,0,0,.14,0,.09.09,0,0,0,0-.14,1,1,0,0,0-.26-.24,1.56,1.56,0,0,1,1.13-1,1.36,1.36,0,0,0,1-.67c.07-.08.14-.18.23-.3a3,3,0,0,1,.17.6,2.81,2.81,0,0,1-1,.86l-.13.07s0,0,0,.06,0,0,0,0a3.81,3.81,0,0,1,.62,0,4.24,4.24,0,0,1-.78.83c-.57.15-.87.45-.91,1.29,0,.05,0,.1.1.11s.1,0,.11-.1c0-.91.38-1.06,1.09-1.16l.16,0h0l.58-.09a2,2,0,0,0,1.38-1.14c0,.25,0,.46,0,.65a3.53,3.53,0,0,1-1.56,1.81l-.21.14a0,0,0,0,0,0,.05,0,0,0,0,0,0,0,3.61,3.61,0,0,0,.6-.05,8.14,8.14,0,0,1-1,1.3s0,0,0,.05l0,0a6.78,6.78,0,0,0,1,.07c.34,0,.63,0,.77,0a.1.1,0,0,0,.11,0,6.23,6.23,0,0,0,.73-.26,1.55,1.55,0,0,1-1.13,1.09.11.11,0,0,0-.07.12.1.1,0,0,0,.1.09,3.22,3.22,0,0,0,1-.16,3.29,3.29,0,0,1-.53.8,5.34,5.34,0,0,1-2.34-.9,0,0,0,0,0-.07,0s0,.06,0,.07a5.3,5.3,0,0,0,2.3.9,1.37,1.37,0,0,1-.26.18l-.1.05a1.23,1.23,0,0,1-1-.13.12.12,0,0,0-.15,0,.11.11,0,0,0,0,.15c.34.23.57.41.75.55l.21.17a1.73,1.73,0,0,1-.38.05,6,6,0,0,1-1.43-1.15s0,0-.07,0a0,0,0,0,0,0,.07,5.78,5.78,0,0,0,1.3,1.09,1.56,1.56,0,0,1-.84-.3.09.09,0,0,0-.1,0,.11.11,0,0,0-.07.08,2.74,2.74,0,0,0,0,.64.91.91,0,0,1-.35-.26l0,0,0-.05h0a2.27,2.27,0,0,1-.36-.89,0,0,0,0,0-.06,0s0,0,0,.06a2.93,2.93,0,0,0,.31.84,5.45,5.45,0,0,1-2.73-.08,1.32,1.32,0,0,0-1.14.05,1.86,1.86,0,0,1-1,.08.83.83,0,0,0-.82.18l-.09.06c-.25.2-.63.51-1.24-.13a.52.52,0,0,0-.47-.24h-.08c-.07,0-.13-.25-.14-.38h.24a8.31,8.31,0,0,0,1-.15.86.86,0,0,0,.54-.4,1.24,1.24,0,0,1,.64-.4h0a1,1,0,0,1,.34,0,2.15,2.15,0,0,0,.48.08.56.56,0,0,0,.37-.13l.08-.06c.1-.08.14-.12.52-.13a.12.12,0,0,0,.1-.06.11.11,0,0,0,0-.11,1.66,1.66,0,0,0-.39-.34,1.79,1.79,0,0,1-.22-.53s0,0,0,0,0,0,0,0a2.28,2.28,0,0,0-.18.34h-.06a1,1,0,0,0-.2-.57.05.05,0,0,0,0,0,.1.1,0,0,0,0,0v0a.9.9,0,0,1-.26.57l-.08,0-.14,0a.86.86,0,0,0,.31-.56,1.21,1.21,0,0,0-.16-.94,1.15,1.15,0,0,0-.85-.37s-.05,0-.05,0,0,0,0,.05a.8.8,0,0,1,.3.66,1,1,0,0,1-.47.63.35.35,0,0,0-.16.16,1.35,1.35,0,0,1-.2-.27.63.63,0,0,0,.32-.56.78.78,0,0,0-.37-.7.76.76,0,0,1-.39-.45,1.22,1.22,0,0,0-.07-.17s0,0,0-.06A.73.73,0,0,0,233,296.46Zm-.08,4a1.12,1.12,0,0,1-.13-1l.08.11a1.43,1.43,0,0,0,.67.58.7.7,0,0,1-.33.2Zm-.27-2a.54.54,0,0,0,.5,0,1.38,1.38,0,0,0,.17.25,1.16,1.16,0,0,0-.18.69A1.92,1.92,0,0,1,232.61,298.4Zm.12.6h-.06a.07.07,0,0,1,0-.05v0Zm.62-.28.09.08a.25.25,0,0,0,0,.13.28.28,0,0,0,.15.12l.13.06a.52.52,0,0,0,.25.05l.16,0a1.7,1.7,0,0,0,.39,0l.2-.05a1.61,1.61,0,0,1,.57-.06,1.9,1.9,0,0,0-.1.61,1.37,1.37,0,0,1-.43-.06,1,1,0,0,0-.38,0h0a6,6,0,0,1-1.19-.35A1,1,0,0,1,233.35,298.72Zm.2,0a.27.27,0,0,1,.15-.18h0a1.1,1.1,0,0,0,.52-.71.79.79,0,0,0-.24-.64,1,1,0,0,1,.65.33,1,1,0,0,1,.14.86.79.79,0,0,1-.42.6h0a.65.65,0,0,1-.55.06l-.14-.06s0,0-.1-.09A.19.19,0,0,1,233.55,298.69Zm1.35.23a1,1,0,0,0,.23-.49.89.89,0,0,1,.11.44Zm.7-.28a1.67,1.67,0,0,0,.46.76.82.82,0,0,0-.48.16l-.05,0a.54.54,0,0,1-.22.12A2.19,2.19,0,0,1,235.6,298.64Zm-4.68-.56a1.08,1.08,0,0,1-.06-.66.37.37,0,0,1,.16-.24,1.11,1.11,0,0,0,.62-.74.52.52,0,0,1,.45-.23h0a.57.57,0,0,1,.5.32l.06.15a.94.94,0,0,0,.48.55.57.57,0,0,1,.26.52.42.42,0,0,1-.21.38c-.34.17-.4.14-.52.07h0a1,1,0,0,0-1,.05A.67.67,0,0,1,230.92,298.08Zm1.19.24a.62.62,0,0,1,.38,0,2.22,2.22,0,0,0,.11.39.58.58,0,0,0,0,.19,1,1,0,0,0,0,.19A1.62,1.62,0,0,1,232.11,298.32Zm.18.63h-.06a.45.45,0,0,0,0-.11Zm-.61-.51h.07l.26-.09c0,.09.05.18.08.26a1.86,1.86,0,0,0,0,.36A1.08,1.08,0,0,1,231.68,298.44Zm-2.59,1.11a1.77,1.77,0,0,1,.88-.36.57.57,0,0,1,.24.05c.78.32,1,.2,1.24.08a1.18,1.18,0,0,1,.39-.14,2.7,2.7,0,0,1,.63,0l.08.07,0,0,0,0h0a.05.05,0,0,0,0,0s0,0,0,0l.22.07.05,0a.84.84,0,0,0,.19.19h0a.05.05,0,0,0,0-.05v0a6,6,0,0,0,.84.27,1.07,1.07,0,0,0-.45.37l0,0a1.35,1.35,0,0,1-.66-.56l-.14-.19a0,0,0,0,0-.05,0,.05.05,0,0,0,0,0,1.35,1.35,0,0,0,.07,1.09,4.08,4.08,0,0,1-.53.06h-.12c-.19,0-.37,0-.92.31s-.8.25-2-.26a.56.56,0,0,1-.38-.46A.58.58,0,0,1,229.09,299.55Z" transform="translate(-226.93 -235.01)"/><path d="M236.28,297.59a.09.09,0,0,0,.05,0h0a0,0,0,0,0,0-.06.53.53,0,0,0-.38-.26.57.57,0,0,0,0-.48,1.29,1.29,0,0,0,.23-.12,1.93,1.93,0,0,0,.75,0,.52.52,0,0,0-.23.42.52.52,0,0,0,.52.53l.11,0a2.8,2.8,0,0,0,.12.29h0l0-.07a.74.74,0,0,1,.08-.13l.1-.07.07,0a.74.74,0,0,1,.27,0h.06l-.36-.24a.19.19,0,0,0,0-.08.5.5,0,0,0,0-.13.58.58,0,0,0,0-.14v-.05a0,0,0,0,0,0,0l0,0a.52.52,0,0,0-.2-.19l-.13-.15a.07.07,0,0,0-.06,0,2.17,2.17,0,0,1-1.09.11h-.05a1.27,1.27,0,0,1-.29.15l0,0s0,0,0,0,0,.48,0,.48v0s0,0,0,0C236.21,297.41,236.28,297.58,236.28,297.59Zm1.21-.87.19.2a0,0,0,0,0,0,0c0,.06,0,.16,0,.25a0,0,0,0,0,0,0,1.84,1.84,0,0,1-.4-.38h0a1.68,1.68,0,0,0,.09.65l-.08,0a.43.43,0,0,1,0-.85A.46.46,0,0,1,237.49,296.72Z" transform="translate(-226.93 -235.01)"/><path d="M232.8,298a.63.63,0,0,0,.19,0,.42.42,0,0,0,.15-.36v0a.27.27,0,0,0-.39-.17.33.33,0,0,0-.12.23s0,.1.15.13a.74.74,0,0,1-.17.08.07.07,0,0,0-.07,0,.07.07,0,0,0,0,.06A.61.61,0,0,0,232.8,298Zm.11-.22a0,0,0,0,0,0-.05s0,0,0,0-.14,0-.15-.06a.34.34,0,0,1,.08-.14.13.13,0,0,1,.09,0c.12,0,.13.08.14.12a0,0,0,0,1,0,0,.38.38,0,0,1-.09.24.55.55,0,0,1-.19,0A.29.29,0,0,0,232.91,297.74Z" transform="translate(-226.93 -235.01)"/><path d="M231.44,297.25h0c-.07,0-.31.05-.35.16a.56.56,0,0,0,0,.45h.06a.07.07,0,0,0,0-.07.34.34,0,0,1,.06-.17c.05.14.15.14.16.14a.38.38,0,0,0,.21-.13.2.2,0,0,0,0-.17A.23.23,0,0,0,231.44,297.25Zm.1.32a.26.26,0,0,1-.13.09s0,0-.07-.15a.05.05,0,0,0,0,0h0a.45.45,0,0,0-.13.15.62.62,0,0,1,0-.19c0-.05.2-.11.23-.1h0c.05,0,.1,0,.13.13S231.56,297.55,231.54,297.57Z" transform="translate(-226.93 -235.01)"/><path d="M255.56,300a.92.92,0,0,1-.74-.63v-.07c-.06-.28-.11-.52-.51-.58,0,0-.06,0-.06,0s0,.06,0,.06c.34.05.37.23.43.5v.07a1,1,0,0,0,.81.7,1.59,1.59,0,0,1,.74.55l0,0h0a.05.05,0,0,0,0-.07A1.64,1.64,0,0,0,255.56,300Z" transform="translate(-226.93 -235.01)"/><path d="M256.26,296.35a1.05,1.05,0,0,1,.37-.4,1.54,1.54,0,0,0-1.15-.13C255.87,295.85,256,296.05,256.26,296.35Z" transform="translate(-226.93 -235.01)"/><path d="M253.92,300.25a0,0,0,0,0,0-.05h0s-.05,0-.05,0a1.22,1.22,0,0,0,.07.58l0,0h0a.07.07,0,0,0,0-.07A1,1,0,0,1,253.92,300.25Z" transform="translate(-226.93 -235.01)"/><path d="M255,300.29a0,0,0,0,0,0,.07.88.88,0,0,1,.26.53.05.05,0,0,0,0,.05h0s0,0,0-.06a1,1,0,0,0-.29-.59A0,0,0,0,0,255,300.29Z" transform="translate(-226.93 -235.01)"/><path d="M254.24,300a.05.05,0,0,0,0-.06s0,0-.06,0a1.13,1.13,0,0,0,.15.71l.05,0h0a0,0,0,0,0,0-.06A1,1,0,0,1,254.24,300Z" transform="translate(-226.93 -235.01)"/><path d="M251,301.35c-.16-.07-.24-.11-.38-.4a0,0,0,0,0-.06,0,0,0,0,0,0,0,.06.75.75,0,0,0,.43.45l.11.06h0l0,0a.06.06,0,0,0,0-.07Z" transform="translate(-226.93 -235.01)"/><path d="M255.47,300.31a0,0,0,0,0-.06,0s0,.05,0,.06a.93.93,0,0,1,.5.45s0,0,0,.08,0,0,0,0h0a.05.05,0,0,0,0-.07l0-.08A1.08,1.08,0,0,0,255.47,300.31Z" transform="translate(-226.93 -235.01)"/><path d="M253.57,300.24a.07.07,0,0,0-.06,0,1.9,1.9,0,0,0,0,.63.05.05,0,0,0,.05,0h0a0,0,0,0,0,0-.06,1.65,1.65,0,0,1,0-.59S253.6,300.25,253.57,300.24Z" transform="translate(-226.93 -235.01)"/><path d="M253.21,300.34s-.05,0-.05,0a3.32,3.32,0,0,0,0,.66s0,0,.05,0h0a0,0,0,0,0,0-.05,4.1,4.1,0,0,1,0-.64A.05.05,0,0,0,253.21,300.34Z" transform="translate(-226.93 -235.01)"/><path d="M251.48,301.24a.41.41,0,0,1-.27-.35s0,0-.06,0a0,0,0,0,0,0,.06.51.51,0,0,0,.33.41h.08a.06.06,0,0,0,0-.07Z" transform="translate(-226.93 -235.01)"/><path d="M252.53,300.53s0-.06,0-.06h0a0,0,0,0,0,0,0,1.93,1.93,0,0,0,0,.55.07.07,0,0,0,.05,0h0a.05.05,0,0,0,0-.06A1.68,1.68,0,0,1,252.53,300.53Z" transform="translate(-226.93 -235.01)"/><path d="M251.58,300.82a.05.05,0,0,0-.1,0,.41.41,0,0,0,.19.31l0,0a.05.05,0,0,0,0,0l0,0a0,0,0,0,0,0-.07l0,0A.32.32,0,0,1,251.58,300.82Z" transform="translate(-226.93 -235.01)"/><path d="M246.94,300.72a4.25,4.25,0,0,0,1.48.49,1.38,1.38,0,0,0,.71-.23,2,2,0,0,1,.51-.25c0,.11.05.53.32.55h.1c.12,0,.17,0,.32.17a1.2,1.2,0,0,0,.85.45,1.05,1.05,0,0,0,.68-.3l.07-.06a.62.62,0,0,1,.64-.14,2.07,2.07,0,0,0,1.18-.09,1.12,1.12,0,0,1,1,0,5.85,5.85,0,0,0,2.84.09l0,0a1.07,1.07,0,0,0,.65.38.11.11,0,0,0,.11,0,.13.13,0,0,0,0-.12s-.08-.14-.05-.54a1.84,1.84,0,0,0,1.66.12.13.13,0,0,0,.07-.09.12.12,0,0,0-.05-.1c-.11-.07-.23-.16-.37-.27l-.22-.18a1,1,0,0,0,.62-.08l.08-.05c.23-.13.62-.34,1.11-1.44a.1.1,0,0,0,0-.12.09.09,0,0,0-.13,0,1.38,1.38,0,0,1-.55.2,2.33,2.33,0,0,0,.8-1.26.1.1,0,0,0-.05-.12.12.12,0,0,0-.13,0,.94.94,0,0,1-.35.2,2.67,2.67,0,0,0,.54-.93.1.1,0,0,0-.16-.11,2.14,2.14,0,0,1-.82.33,2.53,2.53,0,0,0,.66-.82.13.13,0,0,0,0-.13.13.13,0,0,0-.12,0,1.41,1.41,0,0,1-.66.15c.51-.58.59-1.21.42-2.66a.09.09,0,0,0-.09-.09.11.11,0,0,0-.11.07,1.86,1.86,0,0,1-1.37,1.43H259a1.74,1.74,0,0,0,.3-.38,2.35,2.35,0,0,0-.09-2.17s0-.06-.08-.06a.1.1,0,0,0-.1,0c-.15.17-.25.32-.34.44a1.17,1.17,0,0,1-.86.59,1.81,1.81,0,0,0-1.26,1.1,1.36,1.36,0,0,0-.56-.14,1.66,1.66,0,0,0-1.18.52,1.29,1.29,0,0,0-1.45.3c-.18.24-.2.23-.35.14l-.23-.13a1.65,1.65,0,0,0-1.69.08.11.11,0,0,0,0,.12.11.11,0,0,0,.1.07.77.77,0,0,1,.59.1.26.26,0,0,1,.07.24.24.24,0,0,1-.1.21.39.39,0,0,1-.26.1l-.25,0-.4,0a.67.67,0,0,1-.18-.07A1.4,1.4,0,0,0,250,296h0a.78.78,0,0,0-.68.34s0,0,0,0a.9.9,0,0,1-.51.62.52.52,0,0,0-.26.37,1.26,1.26,0,0,0,.07.82.82.82,0,0,0,.67.3,1,1,0,0,0,.17,0,1.31,1.31,0,0,0,.4.51h-.16a1.65,1.65,0,0,0-.46.15c-.21.11-.38.2-1.07-.08-.29-.12-.62-.11-1.3.33a.78.78,0,0,0-.4.71A.75.75,0,0,0,246.94,300.72Zm13-4.33a.09.09,0,0,0,0,.11.11.11,0,0,0,.08.07,1.75,1.75,0,0,0,.7,0,1.67,1.67,0,0,1-1.19.81.1.1,0,0,0-.08.12.12.12,0,0,0,.11.09,4.84,4.84,0,0,0,1.49-.35,1.81,1.81,0,0,1-.81.91.1.1,0,0,0,0,.05,7.71,7.71,0,0,1-1.64,0,8.09,8.09,0,0,0,1-1.36s0,0,0,0a0,0,0,0,0,0,0,1.87,1.87,0,0,1-.51.08l.07,0a3.6,3.6,0,0,0,1.49-1.65A1.7,1.7,0,0,1,260,296.39Zm-.81-1.76a1.23,1.23,0,0,1-.63.59l-.18,0-.15,0a3.68,3.68,0,0,0,.7-.81,0,0,0,0,0,0,0s0,0,0,0-.24,0-.51,0a2.79,2.79,0,0,0,.95-.79A1.83,1.83,0,0,1,259.14,294.63Zm-8.34,1.83.41,0,.24,0a.66.66,0,0,0,.43-.14.53.53,0,0,0,.17-.36.49.49,0,0,0-.13-.4.56.56,0,0,0-.33-.15,1.53,1.53,0,0,1,1.12.12l.21.11c.23.14.36.17.63-.19a1,1,0,0,1,1.1-.25l-.08.1a.11.11,0,0,0,0,.14.11.11,0,0,0,.15,0,1.69,1.69,0,0,1,1.24-.71h0a1.28,1.28,0,0,1,.56.16l0,0a.75.75,0,0,1,.26.22.11.11,0,0,0,.15,0,.11.11,0,0,0,0-.14,1.33,1.33,0,0,0-.27-.24,1.58,1.58,0,0,1,1.13-1,1.4,1.4,0,0,0,1-.67c.06-.08.13-.18.23-.3a3.93,3.93,0,0,1,.17.6,2.89,2.89,0,0,1-1,.86l-.14.07a.07.07,0,0,0,0,.06.1.1,0,0,0,.05,0,3.9,3.9,0,0,1,.63,0,4.94,4.94,0,0,1-.78.83c-.58.15-.87.45-.92,1.29a.12.12,0,0,0,.1.11.1.1,0,0,0,.11-.1c.05-.91.39-1.06,1.09-1.16l.17,0h0l.58-.09a2,2,0,0,0,1.38-1.14c0,.25,0,.46,0,.65a3.48,3.48,0,0,1-1.55,1.81l-.22.14a.08.08,0,0,0,0,.05.07.07,0,0,0,.05,0,3.84,3.84,0,0,0,.6-.05,8.86,8.86,0,0,1-1,1.3s0,0,0,.05,0,0,0,0a6.78,6.78,0,0,0,1,.07c.35,0,.64,0,.77,0a.12.12,0,0,0,.11,0,5.87,5.87,0,0,0,.74-.26,1.57,1.57,0,0,1-1.13,1.09.12.12,0,0,0-.08.12.11.11,0,0,0,.1.09,3.24,3.24,0,0,0,1-.16,3.57,3.57,0,0,1-.54.8,5.34,5.34,0,0,1-2.33-.9,0,0,0,0,0-.07,0,0,0,0,0,0,0,.07,5.41,5.41,0,0,0,2.3.9,1.37,1.37,0,0,1-.26.18l-.09.05a1.25,1.25,0,0,1-1.05-.13.11.11,0,0,0-.14,0,.12.12,0,0,0,0,.15c.35.23.57.41.75.55l.21.17a1.64,1.64,0,0,1-.37.05A5.8,5.8,0,0,1,258,300a.05.05,0,0,0-.08.06,6,6,0,0,0,1.31,1.09,1.59,1.59,0,0,1-.85-.3.09.09,0,0,0-.1,0,.1.1,0,0,0-.06.08,2.75,2.75,0,0,0,0,.64.91.91,0,0,1-.35-.26l0,0-.05-.05h0a2.36,2.36,0,0,1-.35-.89s0-.05-.06,0a0,0,0,0,0,0,.06,2.64,2.64,0,0,0,.31.84,5.43,5.43,0,0,1-2.73-.08,1.34,1.34,0,0,0-1.15.05,1.83,1.83,0,0,1-1,.08.85.85,0,0,0-.83.18l-.08.06c-.25.2-.63.51-1.25-.13a.51.51,0,0,0-.46-.24H250c-.07,0-.13-.25-.13-.38h.23a8,8,0,0,0,1-.15.91.91,0,0,0,.55-.4,1.22,1.22,0,0,1,.63-.4h0a1.06,1.06,0,0,1,.35,0,2.08,2.08,0,0,0,.47.08.58.58,0,0,0,.38-.13l.07-.06c.1-.08.15-.12.53-.13a.1.1,0,0,0,.09-.06.09.09,0,0,0,0-.11,1.63,1.63,0,0,0-.38-.34,1.55,1.55,0,0,1-.23-.53,0,0,0,0,0,0,0,.06.06,0,0,0-.05,0s-.09.14-.18.34h-.06a1,1,0,0,0-.19-.57.07.07,0,0,0-.05,0,.07.07,0,0,0,0,0v0a.93.93,0,0,1-.25.57l-.08,0-.14,0a.85.85,0,0,0,.3-.56,1,1,0,0,0-1-1.31.05.05,0,0,0-.05,0,0,0,0,0,0,0,.05.82.82,0,0,1,.31.66,1,1,0,0,1-.47.63.37.37,0,0,0-.17.16,1.31,1.31,0,0,1-.19-.27.63.63,0,0,0,.31-.56.78.78,0,0,0-.37-.7.74.74,0,0,1-.38-.45,1.22,1.22,0,0,0-.07-.17s0,0,0-.06A.67.67,0,0,0,250.8,296.46Zm-.08,4a1.08,1.08,0,0,1-.12-1l.07.11a1.53,1.53,0,0,0,.67.58.63.63,0,0,1-.32.2Zm-.27-2a.54.54,0,0,0,.5,0,2.2,2.2,0,0,0,.17.25,1.11,1.11,0,0,0-.17.69A1.92,1.92,0,0,1,250.45,298.4Zm.13.6h-.06v-.09Zm.62-.28.08.08a.25.25,0,0,0,.05.13.23.23,0,0,0,.14.12l.13.06a.59.59,0,0,0,.25.05l.16,0a1.7,1.7,0,0,0,.39,0l.21-.05a1.58,1.58,0,0,1,.56-.06,2.22,2.22,0,0,0-.1.61,1.32,1.32,0,0,1-.42-.06,1.06,1.06,0,0,0-.39,0h0a5.93,5.93,0,0,1-1.2-.35A1.09,1.09,0,0,1,251.2,298.72Zm.19,0a.3.3,0,0,1,.15-.18h0a1.13,1.13,0,0,0,.53-.71.86.86,0,0,0-.24-.64,1,1,0,0,1,.65.33,1,1,0,0,1,.13.86.79.79,0,0,1-.41.6h0a.65.65,0,0,1-.55.06l-.14-.06s-.06,0-.1-.09A.21.21,0,0,1,251.39,298.69Zm1.35.23a1,1,0,0,0,.24-.49.84.84,0,0,1,.1.44Zm.71-.28a1.59,1.59,0,0,0,.46.76.89.89,0,0,0-.49.16l0,0a.45.45,0,0,1-.21.12A2.19,2.19,0,0,1,253.45,298.64Zm-4.69-.56a1,1,0,0,1,0-.66.34.34,0,0,1,.16-.24,1.12,1.12,0,0,0,.61-.74.54.54,0,0,1,.46-.23h0a.54.54,0,0,1,.49.32,1,1,0,0,1,.07.15.91.91,0,0,0,.47.55.6.6,0,0,1,.27.52.43.43,0,0,1-.22.38c-.33.17-.39.14-.52.07h0a1,1,0,0,0-1,.05A.68.68,0,0,1,248.76,298.08Zm1.2.24a.63.63,0,0,1,.38,0,3.69,3.69,0,0,0,.1.39,1.11,1.11,0,0,0,0,.19,1.42,1.42,0,0,1,0,.19A1.62,1.62,0,0,1,250,298.32Zm.18.63h-.06a.37.37,0,0,1,0-.11A.41.41,0,0,0,250.14,299Zm-.62-.51h.08l.26-.09a1.12,1.12,0,0,0,.08.26,1,1,0,0,0,0,.36A1.18,1.18,0,0,1,249.52,298.44Zm-2.58,1.11a1.77,1.77,0,0,1,.88-.36.52.52,0,0,1,.23.05c.78.32,1,.2,1.25.08a1,1,0,0,1,.39-.14,2.7,2.7,0,0,1,.63,0l.07.07,0,0,0,0h0l0,0v0l.23.07,0,0a.84.84,0,0,0,.2.19H251a.05.05,0,0,0,0-.05v0a5.57,5.57,0,0,0,.84.27,1,1,0,0,0-.45.37l0,0a1.38,1.38,0,0,1-.67-.56c0-.06-.09-.12-.13-.19s0,0-.05,0,0,0,0,0a1.35,1.35,0,0,0,.07,1.09,4.28,4.28,0,0,1-.53.06h-.13c-.18,0-.37,0-.92.31s-.8.25-2-.26a.59.59,0,0,1-.39-.46A.61.61,0,0,1,246.94,299.55Z" transform="translate(-226.93 -235.01)"/><path d="M254.13,297.59a.09.09,0,0,0,.05,0h0a0,0,0,0,0,0-.06.47.47,0,0,0-.37-.26.61.61,0,0,0,0-.48,1.29,1.29,0,0,0,.23-.12,1.88,1.88,0,0,0,.74,0,.54.54,0,0,0-.22.42.52.52,0,0,0,.52.53l.1,0a2.8,2.8,0,0,0,.12.29h0s0,0,0-.07a.29.29,0,0,1,.08-.13l.1-.07.07,0a.73.73,0,0,1,.26,0H256a2.25,2.25,0,0,1-.36-.24s0-.05,0-.08a.51.51,0,0,0,0-.13.32.32,0,0,0,0-.14v-.08l0,0a.5.5,0,0,0-.19-.19l-.14-.15s0,0,0,0a2.18,2.18,0,0,1-1.09.11h-.06a1.27,1.27,0,0,1-.29.15s0,0,0,0,0,0,0,0,0,.48,0,.48a0,0,0,0,0,0,0s0,0,0,0A.43.43,0,0,1,254.13,297.59Zm1.2-.87.19.2a0,0,0,0,1,0,0,1.85,1.85,0,0,1,0,.25,0,0,0,0,1,0,0,2.13,2.13,0,0,1-.4-.38h0a2.17,2.17,0,0,0,.09.65l-.07,0a.43.43,0,0,1,0-.85A.41.41,0,0,1,255.33,296.72Z" transform="translate(-226.93 -235.01)"/><path d="M250.64,298a.64.64,0,0,0,.2,0,.39.39,0,0,0,.14-.36v0a.26.26,0,0,0-.22-.2.23.23,0,0,0-.17,0,.33.33,0,0,0-.12.23s0,.1.14.13a.57.57,0,0,1-.16.08s-.06,0-.07,0a0,0,0,0,0,0,.06A.52.52,0,0,0,250.64,298Zm.11-.22s0,0,0-.05a.05.05,0,0,0,0,0c-.12,0-.15,0-.15-.06a.23.23,0,0,1,.07-.14.16.16,0,0,1,.1,0,.15.15,0,0,1,.14.12,0,0,0,0,0,0,0,.38.38,0,0,1-.09.24.62.62,0,0,1-.19,0A.31.31,0,0,0,250.75,297.74Z" transform="translate(-226.93 -235.01)"/><path d="M249.29,297.25h0c-.07,0-.31.05-.35.16a.56.56,0,0,0,0,.45H249a.05.05,0,0,0,0-.07.59.59,0,0,1,.07-.17c0,.14.14.14.15.14a.33.33,0,0,0,.21-.13.2.2,0,0,0,0-.17A.23.23,0,0,0,249.29,297.25Zm.1.32a.24.24,0,0,1-.14.09s-.05,0-.06-.15,0,0,0,0h0a.33.33,0,0,0-.12.15.31.31,0,0,1,0-.19.34.34,0,0,1,.23-.1h0s.1,0,.13.13A.13.13,0,0,1,249.39,297.57Z" transform="translate(-226.93 -235.01)"/><path d="M252,324.6a.91.91,0,0,1-.74-.63v-.07c-.06-.27-.11-.51-.51-.58a.06.06,0,0,0-.06.05s0,.05,0,.05c.34.05.38.23.43.5l0,.07a1,1,0,0,0,.81.7,1.67,1.67,0,0,1,.73.55l0,0h0s0-.05,0-.07A1.7,1.7,0,0,0,252,324.6Z" transform="translate(-226.93 -235.01)"/><path d="M252.74,321a1,1,0,0,1,.37-.41,1.5,1.5,0,0,0-1.15-.12C252.35,320.47,252.43,320.66,252.74,321Z" transform="translate(-226.93 -235.01)"/><path d="M250.4,324.86s0-.05,0-.05h0s0,0,0,0a1.22,1.22,0,0,0,.07.58s0,0,0,0h0a.06.06,0,0,0,0-.07A1,1,0,0,1,250.4,324.86Z" transform="translate(-226.93 -235.01)"/><path d="M251.49,324.91a0,0,0,0,0,0,.07.86.86,0,0,1,.25.53.07.07,0,0,0,.05,0h0a0,0,0,0,0,0-.05,1,1,0,0,0-.29-.6A0,0,0,0,0,251.49,324.91Z" transform="translate(-226.93 -235.01)"/><path d="M250.72,324.65s0,0,0,0-.05,0-.06,0a1,1,0,0,0,.16.71s0,0,0,0h0a.05.05,0,0,0,0-.07A1,1,0,0,1,250.72,324.65Z" transform="translate(-226.93 -235.01)"/><path d="M247.51,326a.67.67,0,0,1-.38-.41,0,0,0,0,0-.06,0,.05.05,0,0,0,0,.07.75.75,0,0,0,.43.45l.11.05h0a.05.05,0,0,0,0,0,.07.07,0,0,0,0-.07Z" transform="translate(-226.93 -235.01)"/><path d="M252,324.93a0,0,0,0,0,0,.09.9.9,0,0,1,.5.45l.05.07s0,0,0,0h0s0,0,0-.07l0-.07A1,1,0,0,0,252,324.93Z" transform="translate(-226.93 -235.01)"/><path d="M250.05,324.86s-.05,0-.06,0a1.9,1.9,0,0,0,0,.63.07.07,0,0,0,0,0h0s0,0,0-.06a1.69,1.69,0,0,1,0-.59A0,0,0,0,0,250.05,324.86Z" transform="translate(-226.93 -235.01)"/><path d="M249.69,325a.05.05,0,0,0-.05.05,4.28,4.28,0,0,0,0,.65,0,0,0,0,0,.05.05h0a.06.06,0,0,0,.05-.06,4,4,0,0,1,0-.63A.06.06,0,0,0,249.69,325Z" transform="translate(-226.93 -235.01)"/><path d="M248,325.85a.41.41,0,0,1-.27-.34.06.06,0,0,0-.06,0s0,0,0,.06a.51.51,0,0,0,.33.41h0l0,0,0,0a0,0,0,0,0,0-.07Z" transform="translate(-226.93 -235.01)"/><path d="M249,325.14a.07.07,0,0,0,0-.06h0a.07.07,0,0,0-.05,0,2.07,2.07,0,0,0,.05.56.05.05,0,0,0,0,0h0s0,0,0-.06A1.64,1.64,0,0,1,249,325.14Z" transform="translate(-226.93 -235.01)"/><path d="M248.06,325.44a.05.05,0,1,0-.1,0,.42.42,0,0,0,.19.3l0,0,0,0h0a.06.06,0,0,0,0-.07l0,0C248.16,325.62,248.06,325.54,248.06,325.44Z" transform="translate(-226.93 -235.01)"/><path d="M245.25,321.61a.54.54,0,0,0-.26.37,1.23,1.23,0,0,0,.08.83.79.79,0,0,0,.66.3,1,1,0,0,0,.17,0,1.3,1.3,0,0,0,.4.5h-.16a1.36,1.36,0,0,0-.46.16c-.21.11-.38.19-1.07-.09-.29-.11-.62-.1-1.3.34a.79.79,0,0,0-.4.71.77.77,0,0,0,.51.63,4.36,4.36,0,0,0,1.49.48,1.29,1.29,0,0,0,.7-.23,2.47,2.47,0,0,1,.51-.25c0,.11,0,.53.32.56h.1c.12,0,.17,0,.32.17a1.19,1.19,0,0,0,.85.46,1.11,1.11,0,0,0,.68-.3.21.21,0,0,1,.08-.06.61.61,0,0,1,.63-.15,2.2,2.2,0,0,0,1.19-.08,1.14,1.14,0,0,1,1-.05,5.71,5.71,0,0,0,2.84.09l0,0a1.18,1.18,0,0,0,.65.38.14.14,0,0,0,.11,0,.11.11,0,0,0,0-.11s-.08-.14-.05-.54a1.84,1.84,0,0,0,1.66.11.11.11,0,0,0,.07-.09.12.12,0,0,0-.05-.1c-.11-.07-.22-.16-.37-.27l-.22-.17a1.11,1.11,0,0,0,.62-.09l.08,0c.23-.13.62-.34,1.11-1.43a.11.11,0,0,0,0-.13.1.1,0,0,0-.13,0,1.38,1.38,0,0,1-.55.2,2.29,2.29,0,0,0,.8-1.26.09.09,0,0,0-.05-.12.11.11,0,0,0-.13,0,.87.87,0,0,1-.35.19,2.72,2.72,0,0,0,.55-.93.11.11,0,0,0,0-.12.1.1,0,0,0-.13,0,2.28,2.28,0,0,1-.82.34,2.58,2.58,0,0,0,.66-.83.1.1,0,0,0-.14-.14,1.33,1.33,0,0,1-.66.14c.51-.58.6-1.21.42-2.66a.09.09,0,0,0-.09-.09.11.11,0,0,0-.11.08,1.83,1.83,0,0,1-1.37,1.42h-.09a1.66,1.66,0,0,0,.3-.37,2.36,2.36,0,0,0-.09-2.18.16.16,0,0,0-.08-.06.1.1,0,0,0-.09,0l-.35.44a1.15,1.15,0,0,1-.86.59,1.81,1.81,0,0,0-1.26,1.1,1.31,1.31,0,0,0-.55-.13,1.63,1.63,0,0,0-1.19.52,1.29,1.29,0,0,0-1.45.29c-.18.24-.2.23-.35.14l-.23-.12a1.63,1.63,0,0,0-1.68.07.1.1,0,0,0,0,.12.09.09,0,0,0,.1.07.82.82,0,0,1,.59.1.27.27,0,0,1,.07.25.26.26,0,0,1-.1.21.42.42,0,0,1-.26.09l-.25,0-.4,0a.55.55,0,0,1-.18-.08,1.4,1.4,0,0,0-.68-.18h0a.75.75,0,0,0-.67.35.05.05,0,0,0,0,0A.91.91,0,0,1,245.25,321.61Zm.75,1.45.08,0,.26-.09a1.2,1.2,0,0,0,.08.27,1.38,1.38,0,0,0,0,.36A1.29,1.29,0,0,1,246,323.06Zm.44-.13a.57.57,0,0,1,.38,0,1.89,1.89,0,0,0,.11.38,1.06,1.06,0,0,0,0,.2,1.21,1.21,0,0,1,0,.18A1.7,1.7,0,0,1,246.44,322.93Zm.18.63h-.06a.34.34,0,0,1,0-.1A.86.86,0,0,0,246.62,323.56Zm-1.12,1.85c-.55.34-.8.25-2-.26a.59.59,0,0,1-.39-.46.58.58,0,0,1,.31-.52,1.67,1.67,0,0,1,.88-.36.68.68,0,0,1,.23,0c.78.32,1,.21,1.25.08a1,1,0,0,1,.39-.13,2.32,2.32,0,0,1,.63,0l.07.07,0,0H247s0,0,0,0v0a.9.9,0,0,1,.23.08l0,0,.19.19h.05a.05.05,0,0,0,0,0v0a5.07,5.07,0,0,0,.84.26,1,1,0,0,0-.45.37l0,0a1.35,1.35,0,0,1-.66-.56l-.14-.18s0,0,0,0,0,0,0,0a1.35,1.35,0,0,0,.07,1.09l-.53.07h-.13A1.36,1.36,0,0,0,245.5,325.41Zm2.45-1.74.13.05a.59.59,0,0,0,.25,0l.16,0a1.08,1.08,0,0,0,.4,0l.2-.05a2.26,2.26,0,0,1,.57-.06,2.29,2.29,0,0,0-.11.62,2,2,0,0,1-.42-.07,1.29,1.29,0,0,0-.39,0h0a6.39,6.39,0,0,1-1.2-.35,1.09,1.09,0,0,1,.14-.48l.08.08a.34.34,0,0,0,.05.14C247.87,323.63,247.88,323.64,248,323.67Zm-.08-.37a.27.27,0,0,1,.16-.17h0a1.07,1.07,0,0,0,.53-.7.85.85,0,0,0-.24-.64.94.94,0,0,1,.65.32,1.08,1.08,0,0,1,.14.86.79.79,0,0,1-.42.6h0a.58.58,0,0,1-.55.06l-.14-.06a.15.15,0,0,1-.1-.08A.24.24,0,0,1,247.87,323.3Zm1.35.23a.91.91,0,0,0,.24-.49.75.75,0,0,1,.1.44Zm.71-.28a1.49,1.49,0,0,0,.46.76,1,1,0,0,0-.49.16l-.05,0a.53.53,0,0,1-.21.11A2.19,2.19,0,0,1,249.93,323.25Zm-2.5.7a2,2,0,0,1-.5-.94.51.51,0,0,0,.5,0,1.56,1.56,0,0,0,.17.25A1.13,1.13,0,0,0,247.43,324Zm-.37-.33-.06,0v-.05s0,0,0,0A.54.54,0,0,0,247.06,323.62Zm.76,1.14a.74.74,0,0,1-.32.21l-.3,0a1.11,1.11,0,0,1-.12-.95.44.44,0,0,0,.08.11A1.39,1.39,0,0,0,247.82,324.76Zm8.61-3.75a.11.11,0,0,0,0,.1.1.1,0,0,0,.08.07,1.58,1.58,0,0,0,.7,0A1.61,1.61,0,0,1,256,322a.1.1,0,0,0-.09.12.11.11,0,0,0,.11.09,4.49,4.49,0,0,0,1.49-.35,1.81,1.81,0,0,1-.81.91.1.1,0,0,0,0,0,7.53,7.53,0,0,1-1.64,0,7.71,7.71,0,0,0,1-1.37,0,0,0,0,0,0-.05s0,0-.05,0a1.5,1.5,0,0,1-.51.08l.07,0a3.6,3.6,0,0,0,1.5-1.65A1.79,1.79,0,0,1,256.43,321Zm-.81-1.76a1.3,1.3,0,0,1-.63.59l-.18,0-.15,0a3.63,3.63,0,0,0,.7-.8,0,0,0,0,0,0,0s0,0,0,0-.25,0-.52,0a3.06,3.06,0,0,0,.95-.79A1.69,1.69,0,0,1,255.62,319.25Zm-8.33,1.82.4,0,.24,0a.61.61,0,0,0,.43-.15.47.47,0,0,0,.17-.35.5.5,0,0,0-.13-.41.72.72,0,0,0-.33-.15,1.53,1.53,0,0,1,1.12.13.68.68,0,0,1,.21.11c.23.14.36.16.63-.19a1,1,0,0,1,1.1-.26l-.07.1a.09.09,0,0,0,0,.14.1.1,0,0,0,.14,0,1.69,1.69,0,0,1,1.25-.71h0a1.12,1.12,0,0,1,.56.17h0a1.27,1.27,0,0,1,.26.22.1.1,0,0,0,.14,0,.11.11,0,0,0,0-.15,1,1,0,0,0-.26-.23,1.57,1.57,0,0,1,1.12-1,1.34,1.34,0,0,0,1-.67l.23-.3a3.93,3.93,0,0,1,.17.6,2.81,2.81,0,0,1-1,.86.74.74,0,0,0-.13.08.05.05,0,0,0,0,.05.05.05,0,0,0,.05,0,5.55,5.55,0,0,1,.63,0,4.67,4.67,0,0,1-.78.84c-.58.14-.87.44-.92,1.28a.11.11,0,0,0,.1.11.1.1,0,0,0,.11-.1c.05-.91.39-1.05,1.09-1.16l.17,0h0l.57-.08a2,2,0,0,0,1.38-1.15,5.17,5.17,0,0,1,0,.65,3.51,3.51,0,0,1-1.55,1.82l-.22.13a.08.08,0,0,0,0,0,.05.05,0,0,0,.05,0,2.29,2.29,0,0,0,.6-.05,10,10,0,0,1-1,1.31s0,0,0,.05a0,0,0,0,0,0,0,5.45,5.45,0,0,0,1,.07c.35,0,.64,0,.77,0s.07.06.11,0a4.61,4.61,0,0,0,.74-.26,1.59,1.59,0,0,1-1.13,1.1.1.1,0,0,0,0,.2,3.22,3.22,0,0,0,1-.16,2.9,2.9,0,0,1-.54.8,5.1,5.1,0,0,1-2.33-.9.06.06,0,0,0-.07,0,0,0,0,0,0,0,.07,5.28,5.28,0,0,0,2.3.9,1.37,1.37,0,0,1-.26.18l-.09.06a1.29,1.29,0,0,1-1-.13.1.1,0,0,0-.11.17c.34.24.56.41.74.55l.22.17a1.86,1.86,0,0,1-.38.06,5.94,5.94,0,0,1-1.43-1.16,0,0,0,0,0-.07,0s0,.05,0,.07a6.47,6.47,0,0,0,1.31,1.08,1.62,1.62,0,0,1-.85-.3.12.12,0,0,0-.1,0,.15.15,0,0,0-.06.09,2.66,2.66,0,0,0,0,.63.82.82,0,0,1-.35-.26l0,0-.05-.05h0a2.3,2.3,0,0,1-.35-.89.07.07,0,0,0-.06,0,.05.05,0,0,0,0,.06,3,3,0,0,0,.31.85,5.71,5.71,0,0,1-2.73-.08,1.34,1.34,0,0,0-1.15.05,2,2,0,0,1-1,.08.85.85,0,0,0-.83.17l-.08.06c-.25.21-.63.52-1.25-.12a.54.54,0,0,0-.46-.25h-.09c-.07,0-.13-.25-.13-.38h.23a6.48,6.48,0,0,0,1-.15.85.85,0,0,0,.55-.4,1.34,1.34,0,0,1,.63-.4h0a1.06,1.06,0,0,1,.35,0,2.08,2.08,0,0,0,.47.08.58.58,0,0,0,.38-.13l.08-.06c.09-.08.14-.11.52-.13a.09.09,0,0,0,.09-.06.11.11,0,0,0,0-.11,2.24,2.24,0,0,0-.39-.34,1.58,1.58,0,0,1-.23-.52,0,0,0,0,0,0,0,.06.06,0,0,0-.05,0,1.55,1.55,0,0,0-.18.34h-.07a1,1,0,0,0-.19-.58s0,0-.05,0a0,0,0,0,0,0,0v0a1,1,0,0,1-.26.57H249l-.14,0a.82.82,0,0,0,.3-.55,1.15,1.15,0,0,0-.15-.94,1.18,1.18,0,0,0-.86-.38.05.05,0,0,0-.05,0,.07.07,0,0,0,0,.06.82.82,0,0,1,.31.66,1,1,0,0,1-.47.63.31.31,0,0,0-.17.15,1.31,1.31,0,0,1-.19-.27.64.64,0,0,0,.32-.56.83.83,0,0,0-.37-.7.73.73,0,0,1-.39-.45s0-.11-.07-.17l-.05-.05A.63.63,0,0,0,247.29,321.07Zm-1.33,0a.56.56,0,0,1,.46-.23h0a.56.56,0,0,1,.49.32,1,1,0,0,1,.07.15.91.91,0,0,0,.47.55.62.62,0,0,1,.27.52.42.42,0,0,1-.21.38c-.34.18-.4.14-.53.08l0,0a1,1,0,0,0-1,.05.7.7,0,0,1-.76-.15,1.13,1.13,0,0,1-.05-.67.34.34,0,0,1,.16-.23A1.15,1.15,0,0,0,246,321.05Z" transform="translate(-226.93 -235.01)"/><path d="M250.61,322.2a.05.05,0,0,0,0,0h0a0,0,0,0,0,0-.06.49.49,0,0,0-.37-.26.6.6,0,0,0,0-.48.85.85,0,0,0,.23-.12,1.68,1.68,0,0,0,.74,0,.5.5,0,0,0-.22.41.52.52,0,0,0,.52.53l.1,0a1.17,1.17,0,0,0,.13.29h0s0,0,0-.07l.08-.13.1-.06.07,0a1,1,0,0,1,.26,0h.07a3.17,3.17,0,0,1-.36-.23s0-.06,0-.09a.51.51,0,0,0,0-.13.35.35,0,0,0,0-.14v-.08l0,0a.52.52,0,0,0-.19-.2l-.14-.15a0,0,0,0,0-.05,0,2.28,2.28,0,0,1-1.09.1h-.06a1.29,1.29,0,0,1-.29.16l0,0a.07.07,0,0,0,0,.05c.15.15,0,.47,0,.47a0,0,0,0,0,0,0l0,0C250.53,322,250.61,322.19,250.61,322.2Zm1.2-.87.19.2,0,0a2.24,2.24,0,0,1,0,.26v0a2.41,2.41,0,0,1-.41-.37v0a1.83,1.83,0,0,0,.1.64l-.08,0a.43.43,0,0,1,0-.85A.41.41,0,0,1,251.81,321.33Z" transform="translate(-226.93 -235.01)"/><path d="M247.12,322.58a.45.45,0,0,0,.2,0,.39.39,0,0,0,.14-.36v0a.28.28,0,0,0-.22-.2.2.2,0,0,0-.17,0,.32.32,0,0,0-.12.22s0,.1.14.14a.33.33,0,0,1-.16.07s-.06,0-.07,0a.07.07,0,0,0,0,.06A.49.49,0,0,0,247.12,322.58Zm.12-.23a0,0,0,0,0,0-.05s0,0,0,0-.15,0-.15,0a.19.19,0,0,1,.07-.14.12.12,0,0,1,.1,0,.15.15,0,0,1,.14.13s0,0,0,0,0,.21-.09.23a.63.63,0,0,1-.19,0A.45.45,0,0,0,247.24,322.35Z" transform="translate(-226.93 -235.01)"/><path d="M245.48,322.48h0s0-.05,0-.07a.34.34,0,0,1,.06-.17.17.17,0,0,0,.15.14.33.33,0,0,0,.21-.13.25.25,0,0,0,0-.17c0-.17-.15-.2-.21-.21h0a.39.39,0,0,0-.35.15.55.55,0,0,0,0,.45Zm0-.43c0-.05.2-.1.23-.1h0c.05,0,.1,0,.13.13a.11.11,0,0,1,0,.1.23.23,0,0,1-.14.08s0,0-.06-.14a.05.05,0,0,0,0-.05h0a.42.42,0,0,0-.12.15A.41.41,0,0,1,245.49,322.05Z" transform="translate(-226.93 -235.01)"/><path d="M251,281.35c.74-1.15,1.84-2.88,1.14-4.3a2.62,2.62,0,0,0-2.17-1.5,2.47,2.47,0,0,0-2.21,1,2.05,2.05,0,0,0,0,1.94,1.2,1.2,0,0,0,1.21.49.78.78,0,0,0,.51-.34.89.89,0,0,0,.12-.63,1,1,0,0,0-.68-.63,1.12,1.12,0,0,0-.41.09.79.79,0,0,1,.25-.66,1.28,1.28,0,0,1,1.32-.26,1.74,1.74,0,0,1,1,.87,1.33,1.33,0,0,1,.18,1l0,.13c-.2.61-.4,1.25-2.22,2a.09.09,0,0,0-.06.08.1.1,0,0,0,0,.09,1.1,1.1,0,0,0,.88.36,4.44,4.44,0,0,0-.76,2.67,11.66,11.66,0,0,0-1.47-2.33l-.2-.25c-1-1.34-.52-2.22,0-3.16a.09.09,0,0,0,0-.1h0v-1.15a.09.09,0,0,0-.08-.08h-4.63a.09.09,0,0,0-.08.08v1.15h0a.12.12,0,0,0,0,.1c.51.94,1,1.83,0,3.16,0,.08-.12.16-.19.25a11.61,11.61,0,0,0-1.52,2.41,4.3,4.3,0,0,0-.73-2.74,1.1,1.1,0,0,0,.88-.35.13.13,0,0,0,0-.1.11.11,0,0,0-.06-.07c-1.82-.79-2-1.42-2.2-2l0-.14a1.34,1.34,0,0,1,.19-1,1.78,1.78,0,0,1,1-.86,1.27,1.27,0,0,1,1.31.28.72.72,0,0,1,.25.67.8.8,0,0,0-.41-.1.94.94,0,0,0-.68.62.88.88,0,0,0,.11.63.74.74,0,0,0,.51.34,1.17,1.17,0,0,0,1.21-.48,2,2,0,0,0,0-1.95,2.44,2.44,0,0,0-2.19-1,2.62,2.62,0,0,0-2.19,1.47c-.71,1.42.38,3.16,1.1,4.32a7.79,7.79,0,0,1,.51.88,2,2,0,0,1,0,2.17,1.17,1.17,0,0,0-.21-.24.87.87,0,0,0-.94.18,1,1,0,0,0-.06,1.21.9.9,0,0,0,.63.46h.18a1.36,1.36,0,0,0,.82-.3,4.09,4.09,0,0,0,.63-.92c-.38,1.52-.13,3.31,1.91,5.09v.74h5v-.68l.05,0c2-1.72,2.33-3.47,2-5a4,4,0,0,0,.55.77,1.26,1.26,0,0,0,.81.31l.18,0a.88.88,0,0,0,.63-.45,1,1,0,0,0,0-1.21.88.88,0,0,0-.94-.19,1,1,0,0,0-.22.24,2,2,0,0,1,0-2.17A10.21,10.21,0,0,1,251,281.35Zm-8.19-4.49h4.46v1h-4.46Zm-3,8.7a1,1,0,0,1-.82.24.69.69,0,0,1-.5-.36.86.86,0,0,1,0-1,.77.77,0,0,1,.51-.19.29.29,0,0,1,.17,0,.82.82,0,0,1,.23.31.11.11,0,0,0,.09.05.08.08,0,0,0,.09,0,2.15,2.15,0,0,0,.13-2.5,8.1,8.1,0,0,0-.52-.91c-.74-1.18-1.75-2.8-1.09-4.12a2.45,2.45,0,0,1,2-1.36,2.21,2.21,0,0,1,2,.92,1.82,1.82,0,0,1,0,1.75,1,1,0,0,1-1,.39.58.58,0,0,1-.38-.26.65.65,0,0,1-.09-.47.79.79,0,0,1,.5-.47h0a1.1,1.1,0,0,1,.41.13h0a.12.12,0,0,0,.1,0,.14.14,0,0,0,.05-.08,1,1,0,0,0-.31-1,1.49,1.49,0,0,0-1.5-.33,1.85,1.85,0,0,0-1.14.95,1.53,1.53,0,0,0-.22,1.17l0,.13c.19.61.41,1.29,2.16,2.08a.76.76,0,0,1-.66.2h-.15a.11.11,0,0,0-.09.05.09.09,0,0,0,0,.1C240.66,282.36,241.29,283.93,239.77,285.56Zm7.45,4.86h-4.57v-.48h4.57Zm.16-.69h-4.8c-3.8-3.31-1.26-6.59,0-8.17l.2-.25a2.6,2.6,0,0,0,.11-3.22h4.29a2.61,2.61,0,0,0,.1,3.23l.2.25C248.65,283.16,251.18,286.44,247.38,289.73Zm3-5.08a.12.12,0,0,0,.09,0,.1.1,0,0,0,.09-.06.88.88,0,0,1,.23-.3.69.69,0,0,1,.68.16.85.85,0,0,1,0,1,.68.68,0,0,1-.5.35,1,1,0,0,1-.81-.23c-1.51-1.66-.88-3.22,0-4.53a.09.09,0,0,0,0-.1.1.1,0,0,0-.09-.06h-.14a.78.78,0,0,1-.67-.2c1.77-.77,2-1.46,2.18-2.06l0-.14a1.5,1.5,0,0,0-.2-1.16,1.91,1.91,0,0,0-1.13-1,1.51,1.51,0,0,0-1.51.32,1,1,0,0,0-.31,1s0,.07.05.08a.1.1,0,0,0,.09,0l0,0a1.4,1.4,0,0,1,.42-.12.82.82,0,0,1,.49.48.65.65,0,0,1-.09.47.59.59,0,0,1-.38.25,1,1,0,0,1-1-.4,1.84,1.84,0,0,1,0-1.73,2.22,2.22,0,0,1,2-.92,2.44,2.44,0,0,1,2,1.39c.65,1.32-.38,2.93-1.13,4.1a9.23,9.23,0,0,0-.53.9A2.18,2.18,0,0,0,250.36,284.65Z" transform="translate(-226.93 -235.01)"/><path d="M247.31,283.78a1.26,1.26,0,0,1-.16,1,7.13,7.13,0,0,0-.73-.46,5.33,5.33,0,0,0,.41-.39c.28-.3.38-.57.3-.78s-.32-.32-.73-.34a2.5,2.5,0,0,0-1.92.65c-.63-.22-.77-.59-.9-1.67a.08.08,0,0,0-.07-.08.08.08,0,0,0-.1,0,1.37,1.37,0,0,0-.53,1.4,1.28,1.28,0,0,0-.79,1,.12.12,0,0,0,0,.11.11.11,0,0,0,.11,0,2,2,0,0,1,1.35-.1,1.28,1.28,0,0,1,.22.12,3.45,3.45,0,0,0-.23.43c-.11.26-.21.49-.3.72a2.23,2.23,0,0,0-1.1-.24.74.74,0,0,0-.62.25.68.68,0,0,0,0,.6,2.55,2.55,0,0,0,1.17,1.1l0,.05a2.53,2.53,0,0,1-.88.73.11.11,0,0,0-.08.09.12.12,0,0,0,.07.1,2.69,2.69,0,0,0,1.21.05,1.36,1.36,0,0,0,.87.67h0a.09.09,0,0,0,.08,0,.1.1,0,0,0,0-.1,1.85,1.85,0,0,1-.19-1.2,2.87,2.87,0,0,0,.62.07,2.49,2.49,0,0,0,1.22-.31l.13-.06a4.78,4.78,0,0,0,.83-.56,3.31,3.31,0,0,0,.72.39,1.13,1.13,0,0,0,.37.07.6.6,0,0,0,.43-.17,1.14,1.14,0,0,0,0-1.23c0-.05-.06-.1-.09-.16a1.36,1.36,0,0,1,.84-.07.1.1,0,0,0,.1,0,.09.09,0,0,0,0-.1,1.15,1.15,0,0,0-1-.63,1.26,1.26,0,0,0-.5-1,.11.11,0,0,0-.12,0A.1.1,0,0,0,247.31,283.78Zm-3.64.21a2.19,2.19,0,0,0-1.32,0c.15-.47.36-.63.57-.7h0a.92.92,0,0,0,.06.24.09.09,0,0,0,.12.07.1.1,0,0,0,.07-.12c0-.07,0-.14,0-.2v0s0-.07,0-.11a.07.07,0,0,0,0-.05,1.07,1.07,0,0,1,.32-1.11c.11.87.29,1.32.93,1.57a3.87,3.87,0,0,0-.42.54A1.53,1.53,0,0,0,243.67,284Zm.1.81a3.13,3.13,0,0,1,1.28-1.52.85.85,0,0,0,.44.7h0s0,0,0,0a0,0,0,0,0,0-.07.78.78,0,0,1-.4-.67,2.32,2.32,0,0,1,1.24-.24c.31,0,.51.1.55.22h0a1,1,0,0,0-.6.22,0,0,0,0,0,0,.07l0,0,0,0a.84.84,0,0,1,.52-.19.81.81,0,0,1-.25.46,15.41,15.41,0,0,1-1.92,1.57,2.48,2.48,0,0,0-.54.57l-.11-.05,0,0-.32-.17-.3-.15C243.55,285.29,243.65,285.06,243.77,284.8Zm1.39.49c.08.09.17.17.23.25l.32.35c-.69.3-.87.32-1.31.11a2.28,2.28,0,0,1,.47-.5Zm-2,2.68a2.64,2.64,0,0,0-.11-.26.09.09,0,0,0-.12,0,.09.09,0,0,0-.06.12,1.18,1.18,0,0,0,.07.2,2.94,2.94,0,0,1-.8,0,2.8,2.8,0,0,0,.74-.68s0-.05,0-.08a3.53,3.53,0,0,0,.65.23h0a2,2,0,0,0,.12,1.11A1.33,1.33,0,0,1,243.11,288Zm2.55-1-.14.07a2.5,2.5,0,0,1-2,.18,2.64,2.64,0,0,1-1.84-1.28.68.68,0,0,1,0-.29c.27,0,.41.1.49.28,0,0,0,0,0,0h0a0,0,0,0,0,0-.06.6.6,0,0,0-.55-.34s0,0,0,0,.22-.16.45-.17h.07a2.17,2.17,0,0,1,1,.25c0,.33,0,.54-.3.62a.06.06,0,0,0,0,.07.05.05,0,0,0,.05,0h0a.57.57,0,0,0,.37-.67l.3.15.32.17,0,0,.17.08h0c.61.3.8.31,1.67-.07l.25.24.11.09.16.15A4.1,4.1,0,0,1,245.66,287Zm2.28-.22-.09-.09a1.76,1.76,0,0,0-.65-.48.06.06,0,0,0-.06,0s0,.05,0,.06a1.6,1.6,0,0,1,.61.45l.07.06a.55.55,0,0,1-.49,0,3.4,3.4,0,0,1-1-.61l-.17-.15-.09-.09a1.3,1.3,0,0,1-.13-.13h0c-.14-.15-.28-.3-.4-.45a2.55,2.55,0,0,0-.23-.24c.32-.23.64-.48.93-.73a7.88,7.88,0,0,1,1,.67l.06.05a2,2,0,0,1,.56.63C248.1,286.21,248.12,286.6,247.94,286.79Zm-.41-2.74a1,1,0,0,1,.25.74.1.1,0,0,0,.1.1,1,1,0,0,1,.77.35,1.61,1.61,0,0,0-.77.13l-.09-.08-.16-.16-.06-.05-.25-.2A1.25,1.25,0,0,0,247.53,284.05Z" transform="translate(-226.93 -235.01)"/><path d="M246.2,283.19a.07.07,0,0,0-.07-.06.06.06,0,0,0-.06.06s0,.07.06.07A.07.07,0,0,0,246.2,283.19Z" transform="translate(-226.93 -235.01)"/><path d="M247.47,286a.08.08,0,0,0,.07.07.07.07,0,0,0,0-.14A.08.08,0,0,0,247.47,286Z" transform="translate(-226.93 -235.01)"/><path d="M242.32,285.59a.07.07,0,0,0,.14,0,.07.07,0,0,0-.07-.06S242.32,285.56,242.32,285.59Z" transform="translate(-226.93 -235.01)"/><path d="M246.52,285.42a.5.5,0,0,0-.11.42,0,0,0,0,0,0,0h0s0,0,0-.06a.44.44,0,0,1,.1-.34.61.61,0,0,1,.47-.21.06.06,0,0,0,.05,0,.05.05,0,0,0-.05-.05A.7.7,0,0,0,246.52,285.42Z" transform="translate(-226.93 -235.01)"/><path d="M242.09,276.18l.06,0,.44,0h.32a.07.07,0,0,0,.07,0,.06.06,0,0,0,0-.08,3.81,3.81,0,0,0-2.26-1.78l-.26-.11a5.94,5.94,0,0,0-4,0l-.08,0a5.68,5.68,0,0,0-2.26,1.3,6.1,6.1,0,0,0-1,1.08l-.09.12-.18.19h0l-.53.22a1.91,1.91,0,0,0-1.18,1.64,4.19,4.19,0,0,0-.07,1.63.24.24,0,0,0,.1.13c.06,0,.15,0,.28-.09s.13-.17.2-.25l0-.06c.06-.09.11-.18.16-.27l0-.09a2.24,2.24,0,0,0,.12-.29.17.17,0,0,0,0-.05q.06-.21.09-.36a.88.88,0,0,0,0-.16,1,1,0,0,1,.26-.66,1.51,1.51,0,0,1,.25-.18,1,1,0,0,1-.1.15l-.09.11a.89.89,0,0,0-.14.51,3.76,3.76,0,0,1-.54,1.38c-.16.16-.25.48-.12.63h0a.19.19,0,0,0,.16.07.64.64,0,0,0,.39-.18l.19-.14a2.36,2.36,0,0,0,1.27-2.14c0-.14,0-.27,0-.38a1.68,1.68,0,0,1,.27-1.29h0a6.46,6.46,0,0,1,3.61-2.15l.37-.05a5.3,5.3,0,0,1,1.67,0,3.41,3.41,0,0,0-.55,0,4.51,4.51,0,0,0-2,.74,3.29,3.29,0,0,0-1.4,3.39.07.07,0,0,0,0,.06.06.06,0,0,0,.08,0,13,13,0,0,0,1.32-1.28l.32-.45a4.78,4.78,0,0,1,.8-1A2.84,2.84,0,0,1,242.09,276.18Zm-8.59,1.88c0,.11,0,.23,0,.38a2.26,2.26,0,0,1-1.21,2l-.19.14c-.18.14-.3.17-.34.13s0-.28.11-.4a3.62,3.62,0,0,0,.59-1.47c0-.29,0-.32.12-.44a.86.86,0,0,1,.07-.1.74.74,0,0,0,.2-.41h0a.07.07,0,0,0,0-.07l0,0h0a1.69,1.69,0,0,0-.47.31,1.09,1.09,0,0,0-.31.75l0,.16a2.47,2.47,0,0,1-.64,1.28c-.06.06-.09.06-.09.06s0,0,0,0a4.27,4.27,0,0,1,.08-1.53,1.8,1.8,0,0,1,1.1-1.53s.34-.13.53-.22l0,0L233,277a.86.86,0,0,0,.15-.17l.11-.11.49.1A1.86,1.86,0,0,0,233.5,278.06Zm3.77-1.16c-.11.14-.21.3-.32.45a15.92,15.92,0,0,1-1.16,1.14,3.08,3.08,0,0,1,1.33-3.08,4.29,4.29,0,0,1,1.94-.72,4.15,4.15,0,0,1,1.79.26.09.09,0,0,0,.1-.05.08.08,0,0,0,0-.1,4.6,4.6,0,0,0-3-.41l-.37.05a6.66,6.66,0,0,0-3.7,2.19l-.49-.09a5.23,5.23,0,0,1,.88-.94,5.41,5.41,0,0,1,2.21-1.27l.08,0a5.8,5.8,0,0,1,3.89,0l.26.11a3.64,3.64,0,0,1,2.11,1.59l-.59,0a3,3,0,0,0-4.08-.15A4.82,4.82,0,0,0,237.27,276.9Z" transform="translate(-226.93 -235.01)"/><path d="M249.55,272.52a13.2,13.2,0,0,0-1.9,1.71l-.08.09a3.48,3.48,0,0,0-.31.4,5.7,5.7,0,0,1,1-1.22c.55-.51,1.18-1.25,1.6-3.72a.07.07,0,0,0,0-.08.07.07,0,0,0-.09,0,10.34,10.34,0,0,0-3.17,3.05v0a1.73,1.73,0,0,0-.44-.37c.13-.39.25-.78.34-1.15h0a2.77,2.77,0,0,0,.41-.88.08.08,0,0,0,0-.07.05.05,0,0,0,0,0h-.13a7.29,7.29,0,0,0,.11-2.45.1.1,0,0,0-.08-.07.08.08,0,0,0-.08.07,21.24,21.24,0,0,1-1.19,2.5s0,0,0,.05a1.59,1.59,0,0,0-.79.57l-.08.09a1.79,1.79,0,0,0-.75-1.83.08.08,0,0,0-.1,0,1.73,1.73,0,0,0-.5,2,2.21,2.21,0,0,0-.62-.5c-.18-.49-.45-1.17-.69-1.77s-.51-1.26-.52-1.36a.08.08,0,0,0-.08-.07h0a.08.08,0,0,0-.08.07,8.74,8.74,0,0,0,.2,2.86h-.23l-.06,0a.09.09,0,0,0,0,.07,3.66,3.66,0,0,0,.55,1.22,6.71,6.71,0,0,0-1.19-1.12l-.35-.23c-.1-.07-.2-.14-.39-.25a7.3,7.3,0,0,0-2.68-1,.11.11,0,0,0-.08,0,.08.08,0,0,0,0,.08l.13.31c.28.7.49,1.2,2.15,2a10.13,10.13,0,0,1,2.39,1.81.78.78,0,0,0-.05.14,16.3,16.3,0,0,0-3.62-1.74,10,10,0,0,0-1.4-.33,7.87,7.87,0,0,1-2.18-.69.08.08,0,0,0-.1.12s.46.68.71,1.1,1.34.79,2.49,1.16l.59.18c.66.21,1,.31,1.93.69a5.4,5.4,0,0,1,3.15,2.23.08.08,0,0,0,.07.05h0l.36,0h.61a.07.07,0,0,0,.06,0h0l.06,0,.73,0h0a.08.08,0,0,0,.08-.07c0-.05,0-.12,0-.22a5.1,5.1,0,0,1,.51-2.25H246l-.08.12a4.94,4.94,0,0,0-.53,2.32.06.06,0,0,0,0,.06.05.05,0,0,0,.05,0h0l.62,0h.5s0,0,0,0v0l.06,0,.8,0h.05a4.12,4.12,0,0,1,3.24-.67,6.6,6.6,0,0,1,3.56,2.7c.19.22,1.26,1,1.3,1a.08.08,0,0,0,.08,0s0,0,.05-.05a5.82,5.82,0,0,0,0-1.49,4.24,4.24,0,0,0-2.05-2.7,6.57,6.57,0,0,0-3.76-.57,6.81,6.81,0,0,1,2.07-.32l.21,0a4.71,4.71,0,0,1,2.21.69,9.19,9.19,0,0,1,1.5,1.41,1.84,1.84,0,0,0,.19.2c.05.05.12.12.12.15a.41.41,0,0,1,0,.18q0,.09,0,.21a.61.61,0,0,0,0,.24l0,.06a.14.14,0,0,0,0,.11h0a.5.5,0,0,1,0,.12h0l0,.08a1,1,0,0,0,0,.74v0s0,.05,0,.07a2,2,0,0,1-.15,1.54s0,0,0,0,0,0,0,0a.07.07,0,0,0,.06,0h0a2.39,2.39,0,0,0,1.4-.62.11.11,0,0,0,0-.06h0a.09.09,0,0,0,0-.06,1.36,1.36,0,0,1-.45-.45,1.15,1.15,0,0,1-.13-.34,1.39,1.39,0,0,0,.33.56l.16.13.06,0a3,3,0,0,0,1.5.26h0a.08.08,0,0,0,.08-.08h0a.08.08,0,0,0-.08-.08,2.7,2.7,0,0,1-.66-.21l.25.07.15.05.5.11h0a.07.07,0,0,0,.09-.05s0,0,0-.05,0,0,0-.05a1.27,1.27,0,0,1-.31-.35.51.51,0,0,1-.07-.17l0-.22v0s0,0,0,0l0,0s.45,0,1.14-.68a.1.1,0,0,0,0-.09h0a.08.08,0,0,0-.07,0H260l-.19,0-.09,0-.2-.08-.12,0a1.48,1.48,0,0,1-.29-.22,2,2,0,0,0-.9-.69,1.14,1.14,0,0,0-.25,0c-.15,0-.24,0-.3-.1h0a.8.8,0,0,0-.57-.34H257a.28.28,0,0,1-.2-.09,6.72,6.72,0,0,1-.55-.63l-.19-.23a4.84,4.84,0,0,0-3.61-1.7l.35-.05a15.88,15.88,0,0,1,1.86,0,4.22,4.22,0,0,0,3.38-1.17.09.09,0,0,0,0-.12c-.05-.05-.12,0-.15,0a6.64,6.64,0,0,1-2,0,12.24,12.24,0,0,0-5.05.94l-.35.11a4.27,4.27,0,0,1,.75-.34h0a8.57,8.57,0,0,0,1-.68c.28-.24.88-.69,1.36-1a13.62,13.62,0,0,0,1.84-1.67,7.29,7.29,0,0,1,1.74-1.37.08.08,0,0,0,0-.09.09.09,0,0,0-.07-.06,5.76,5.76,0,0,0-2.51.47l-.22.14a7.18,7.18,0,0,0-1.58,1.17C252.51,270.15,250.3,272,249.55,272.52Zm-3.55-.19a3.29,3.29,0,0,0-.65-.22,3.19,3.19,0,0,0,.88-.56C246.15,271.8,246.08,272.06,246,272.33Zm.69-4.16a8,8,0,0,1-.15,2.08,2.64,2.64,0,0,0-.9.05C245.94,269.75,246.45,268.75,246.69,268.17ZM244.8,271a1.86,1.86,0,0,1,1.91-.62,2.32,2.32,0,0,1-1.44,1.56l-.18.09-.23,0a.36.36,0,0,0,0-.1h0a.82.82,0,0,0-.14-.26v-.05h0l-.09-.09-.09-.09C244.61,271.26,244.8,271,244.8,271Zm-1.6,1.48a.58.58,0,0,1,0-.19h0s0,0,0-.06a.06.06,0,0,1,0,0,.8.8,0,0,1,.3-.61h0l.06-.05h0a.76.76,0,0,1,.18-.09.93.93,0,0,1,.24-.05h0a.85.85,0,0,1,.22,0l.09,0a1.1,1.1,0,0,1,.21.14l0,0,0,0h0a.58.58,0,0,1,.14.24h0a.71.71,0,0,1,0,.2h0s0,0,0,.07a.07.07,0,0,0,0,.05h0a.87.87,0,0,1,0,.22v0a.7.7,0,0,1-.14.21h0l0,0-.07,0h0a.82.82,0,0,1-.49.18l-.1,0h0l-.17,0h0a.78.78,0,0,1-.43-.44h0Zm.59-3.15a1.55,1.55,0,0,1,.54,2,1,1,0,0,0-.39-.08h0l-.08,0a.83.83,0,0,0-.35.1A1.73,1.73,0,0,1,243.79,269.36Zm-2.4-1.42c.09.23.22.56.4,1s.46,1.15.64,1.63a2.36,2.36,0,0,0-.8-.18A8.54,8.54,0,0,1,241.39,267.94Zm0,2.58h0a2.13,2.13,0,0,1,1.95,1,.94.94,0,0,0-.34.72h0a1,1,0,0,0-.49,0A3,3,0,0,1,241.34,270.52Zm1,1.79,0,0h0l-.21-.25A1.74,1.74,0,0,0,242.33,272.31Zm-3-1c-1.61-.76-1.79-1.22-2.07-1.91l-.07-.18a7.51,7.51,0,0,1,2.49,1l.37.24c.1.07.19.14.36.24a9.5,9.5,0,0,1,1.7,1.75,1.58,1.58,0,0,0-.41.65A9.84,9.84,0,0,0,239.36,271.31Zm3,1.16a.89.89,0,0,1,.4-.09,1.19,1.19,0,0,1,.24,0l.05.17s0,0,0,0l0,.13h0a1,1,0,0,0,.26.25s-.05.09-.08.14c-.28.54-.47.9-1.7,1C241.83,273.17,242,272.64,242.36,272.47Zm.91,1c0,.05,0,.11,0,.17s0-.05,0-.08Zm.36,2.5h-.31a5.68,5.68,0,0,0-3.22-2.27c-1-.38-1.29-.48-1.93-.68l-.6-.19c-1.06-.34-2.15-.68-2.39-1.08l-.55-.87a8,8,0,0,0,2,.58,10.06,10.06,0,0,1,1.36.32,15.82,15.82,0,0,1,3.62,1.75c-.06.2-.12.41-.18.66a.06.06,0,0,0,0,.07.06.06,0,0,0,.06,0h0a5,5,0,0,0,.85-.14,1.59,1.59,0,0,1,.31.4c.05.12.06.14.11.14h0a.07.07,0,0,0,.07,0,.08.08,0,0,0,0-.07h0l0-.06a3.78,3.78,0,0,0-.21-.45,1.27,1.27,0,0,0,.51-.37l.15.24a1.77,1.77,0,0,0,.61,1.23,5.79,5.79,0,0,1,.27.8Zm.67,0q-.09-.3-.21-.6l0,0h.05a.09.09,0,0,0,.06,0,1.86,1.86,0,0,0,.11-.19l0,.11A3.7,3.7,0,0,1,244.3,276Zm-.14-.75a1.81,1.81,0,0,1-.65-2.14h.06a.57.57,0,0,0,.19.05h.06l.12,0a.82.82,0,0,0,.31-.07l.17-.08,0,0A2,2,0,0,1,244.16,275.23Zm.47-2.16.06.06v.06Zm.4,2.8c0,.05,0,.1,0,.13h-.56a2.87,2.87,0,0,0,0-.67l.08-.46h0a2.12,2.12,0,0,0,.23-1.35h0l0-.26a2.14,2.14,0,0,0,.7.38h0A5.27,5.27,0,0,0,245,275.87Zm.57-2.41h-.06a2.37,2.37,0,0,1-.89-.6,1.55,1.55,0,0,0,.14-.14s0,0,0,0l0-.08h0a0,0,0,0,0,0,0v0l0-.18v-.09s0,0,0-.06v0a2.1,2.1,0,0,1,1.86,1.14A2.3,2.3,0,0,1,245.6,273.46Zm1,2.53h-1a4.67,4.67,0,0,1,.49-2.15l.15-.23a2.12,2.12,0,0,0,.68-.19.08.08,0,0,0,0,0,.09.09,0,0,0,0-.07,4.86,4.86,0,0,0-.27-.41l0-.06a10.18,10.18,0,0,1,3-2.92c-.41,2.28-1,3-1.52,3.45A5.25,5.25,0,0,0,246.55,276Zm11,.71h0a.28.28,0,0,0,.17.1h0a.68.68,0,0,0,.2,0,.75.75,0,0,1,.21,0,1.54,1.54,0,0,1,.68.48l.14.15a1.36,1.36,0,0,0,.4.29,1.76,1.76,0,0,0,.54.17,2.21,2.21,0,0,1-.83.5,2,2,0,0,0-.67-1.17s0,0-.07-.06a.44.44,0,0,0-.17-.07,1.05,1.05,0,0,0-.34-.14h0a.12.12,0,0,0-.1.05.1.1,0,0,0,0,.1,2.64,2.64,0,0,1,.77.63l0,0,.05.09.06.12a1.76,1.76,0,0,1,.1.5,2.48,2.48,0,0,0,0,.27,1.08,1.08,0,0,0,.24.43,1.77,1.77,0,0,1-1.25-.67,1,1,0,0,1-.12-.28,1.8,1.8,0,0,0-.29-.74,1.14,1.14,0,0,0-.14-.15.07.07,0,0,0-.09,0,.07.07,0,0,0,0,.09,2.85,2.85,0,0,1,.14.41l0,.05c0,.13.05.25.07.36l0,.14s0,.08,0,.12a.91.91,0,0,0,.22.38l0,0a.88.88,0,0,0,.23.19,3.77,3.77,0,0,0,.5.23,1.24,1.24,0,0,1-1.29-.9,3.44,3.44,0,0,1-.13-.83.08.08,0,0,0-.07-.08.08.08,0,0,0-.09.07A2,2,0,0,0,257,279a1.4,1.4,0,0,0,.23.29,1.15,1.15,0,0,0,.19.16,2.19,2.19,0,0,1-1.08.48.29.29,0,0,0,0-.1,2,2,0,0,0,.12-1.15c0-.11-.05-.22-.07-.33s0-.15-.05-.21a.63.63,0,0,1,0-.38l0-.07a.36.36,0,0,1,0-.09.37.37,0,0,0,0-.2v-.08h0A2.29,2.29,0,0,1,257.57,276.7Zm.59,2.37L258,279a.9.9,0,0,1-.4-.49.64.64,0,0,0,0-.07,1.11,1.11,0,0,0,.24.39l.1.07A1.5,1.5,0,0,0,258.16,279.07Zm-3.63-10.34.23-.14a4.85,4.85,0,0,1,2.15-.44,6.49,6.49,0,0,0-1.57,1.26,12.2,12.2,0,0,1-1.8,1.63c-.44.31-1.06.78-1.37,1a8.89,8.89,0,0,1-.92.65,16.9,16.9,0,0,0-2,1,3.29,3.29,0,0,0-.35.19.07.07,0,0,0,0,.11.09.09,0,0,0,.11,0l0,0v0l.27-.16a11.92,11.92,0,0,1,1.65-.63,12.15,12.15,0,0,1,5-.93,9.11,9.11,0,0,0,1.88.05,4.26,4.26,0,0,1-3.07.93,14.53,14.53,0,0,0-1.9,0c-.37.05-.75.12-1,.18l-.1,0a1.08,1.08,0,0,0-.32,0,.12.12,0,0,0-.05.11c0,.07,0,.08.39,0a5.61,5.61,0,0,1,.58,0,6.13,6.13,0,0,1,1.91.35,5.67,5.67,0,0,1,1.79,1.3l.19.23a4.81,4.81,0,0,0,.57.65.38.38,0,0,0,.28.13h.07a.73.73,0,0,1,.37.18,2.57,2.57,0,0,0-1,.54s0-.08,0-.11a1.06,1.06,0,0,1,0-.2.63.63,0,0,0,0-.23c0-.09-.09-.16-.17-.24a1.54,1.54,0,0,1-.17-.19,8.6,8.6,0,0,0-1.55-1.44,4.79,4.79,0,0,0-2.27-.72l-.21,0h-.21a13.11,13.11,0,0,0-3.27.76.07.07,0,0,0-.05.1.08.08,0,0,0,.1.05s2.91-.87,5,.29a4.08,4.08,0,0,1,2,2.59,5.88,5.88,0,0,1,0,1.3,12.54,12.54,0,0,1-1.16-.91,6.78,6.78,0,0,0-3.65-2.76,4.34,4.34,0,0,0-3.35.68l-.67,0a3.39,3.39,0,0,1,.85-1.59l.08-.08a12.69,12.69,0,0,1,1.87-1.69c.68-.5,3-2.36,3.35-2.78A6.61,6.61,0,0,1,254.53,268.73Z" transform="translate(-226.93 -235.01)"/><path d="M298.53,255.83v-.38H227v.38s0,36.84,0,42.91c0,13.88,12.27,28.59,34.53,41.42l1.28.83,1.33-.81c22.25-12.79,34.5-27.51,34.5-41.44C298.57,292.67,298.53,255.83,298.53,255.83Zm-58.91,10,0-1.4-1.56,1,.88-1.82-1.76.67,1.25-1.72-1.4.22,1.57-1.54-1.91.2,1.64-1.3-1.13-.21,1.43-.72-1.27-.45,1.65-.5-1.09-.47,1.27-.44-.87-.88,3.19-.06-1.06.62,1,.06-.64.88,1-.23-.21.79.71-.4v.56l.61-.44,0,.66a9.23,9.23,0,0,0-.55,1.08l-.28-.12-.06,0h-.06l0,0v3.95a.06.06,0,0,0,0,0,1.87,1.87,0,0,0,1.24.41,2.46,2.46,0,0,1,1.26.26h0v.22a1.75,1.75,0,0,0-1-.26h-.29a2.85,2.85,0,0,1-1.45-.45v-3.91a0,0,0,0,0-.05-.05.06.06,0,0,0-.06.05v4h0a3.11,3.11,0,0,0,1.53.48h.29a1.63,1.63,0,0,1,1,.27V265a1.73,1.73,0,0,0-.93-.25h-.29a3.8,3.8,0,0,1-1.7-.59v-3.9a.06.06,0,0,0-.06,0,0,0,0,0,0-.05,0v3.93h0v0h0v0h0a3.88,3.88,0,0,0,1.78.62h.28a1.63,1.63,0,0,1,.94.26v.23a2.16,2.16,0,0,0-1.13-.3l-.64-.09a5.34,5.34,0,0,1-1.43-.67v-3.85a.06.06,0,0,0-.06-.05.05.05,0,0,0-.05.05v3.88a.08.08,0,0,0,0,0,5.88,5.88,0,0,0,1.5.7l.66.09a2,2,0,0,1,1.14.32h.05l0,0a2.66,2.66,0,0,1,1.11-.29,2.9,2.9,0,0,0,2.17-.65.05.05,0,0,0,0,0v-4.16s0,0,0,0h0l-.18.11v-.19s0,0,0-.05h-.05l-.18.09v-.2a.08.08,0,0,0,0-.05h-.06l-.2.13v0a.05.05,0,0,0,0-.05h-.05a2.18,2.18,0,0,1-.87.25h-.06a2.73,2.73,0,0,0-.7-.09c.11-.29.24-.62.38-.94h0s.09-.08.07-.57l.53.33-.06-.79.83.65-.28-.94,1,.44-.65-.94,1,.13-.61-.63,1.13-.21-.85-.39,3.3.06-1.34.82,2,.71-1.74.21,1.8.81-1.44.08,1.76,1h-1.83l2.37,1.3-1.49-.2.69,1.23-1.63-.79,1.25,2-1.25-.64.61,1.23-1.25-.82.68,2.17L249,264.35l.5,2-1.26-1.16-.16,1.46-.9-1.16-.29,1.33L246,266l-.39,1-.87-.9-.64,1-.56-1-.89.9-.22-1.13-.87.56-.21-.9-.87.72.06-1.15Zm8.1-5.27.15-.1v4a2.79,2.79,0,0,1-2.07.6,2.64,2.64,0,0,0-1.1.28v-.25a1.54,1.54,0,0,1,1-.25h.26c1-.05,1.2-.17,1.51-.38l.27-.17a.05.05,0,0,0,0-.05Zm-.36,3.84c-.3.2-.48.32-1.46.36h-.25a1.66,1.66,0,0,0-1,.24v-.16a1.6,1.6,0,0,1,1.11-.27h.2a2.13,2.13,0,0,0,1.42-.45s0,0,0-.05V260.4l.15-.07v3.91Zm0-4h0v3.7a2.09,2.09,0,0,1-1.34.41h-.2a1.69,1.69,0,0,0-1.11.26v-.23a2.53,2.53,0,0,1,1.39-.21h0a1.94,1.94,0,0,0,1-.41l0,0v-3.57l.17-.1Zm-.28,3.46a1.86,1.86,0,0,1-1,.37,2.49,2.49,0,0,0-1.41.19V263h0a.64.64,0,0,0,.42-.34,1.1,1.1,0,0,0,.17-.84l-.11-.85c0-.06.1-.3.22-.61h0a3.22,3.22,0,0,1,.7.09,2,2,0,0,0,.92-.21Zm-2-2.9v0l.11.89a.92.92,0,0,1-.14.72.53.53,0,0,1-.31.27.15.15,0,0,1-.13,0,.58.58,0,0,1-.09-.27.25.25,0,0,0,0-.16.45.45,0,0,1,.23-.08.09.09,0,0,1,.08,0,0,0,0,0,0,.07,0,0,0,0,0,0,0-.07.25.25,0,0,0-.15-.1.47.47,0,0,0-.28.09c0-.07,0-.14-.08-.23a11.06,11.06,0,0,1-.29-1.75.1.1,0,0,0-.05-.06,3.78,3.78,0,0,0-.54-.07,2.34,2.34,0,0,1-.84-.2c.15-.37.67-1.24.67-1.25l.06-.09h0a2.52,2.52,0,0,0,.52-1.4l0-.88,1.85,0a3,3,0,0,0-.13,1.05,5.94,5.94,0,0,1,.11,1.83l0,0C245.38,260,245.06,260.91,245.06,260.92Zm-.57,2a.38.38,0,0,0,.1,0v1.47a2.56,2.56,0,0,0-1.28-.24,1.89,1.89,0,0,1-1.13-.37V260a4.62,4.62,0,0,0,1.14.37c.12,0,.55,0,.61,0a10.31,10.31,0,0,0,.3,1.71,3.14,3.14,0,0,1,.12.39h0A.67.67,0,0,0,244.49,262.91Zm-.72-6.65,0,1a2.41,2.41,0,0,1-.5,1.31l0,0-.06-.73-.58.42v-.52l-.59.34.17-.64-.82.18.55-.75-.74,0,1.08-.63h1.59S243.77,256.24,243.77,256.26Zm4.34.42-.87.17.47.48-.84-.11.51.73-.76-.34.23.76-.7-.54.07.84-.31-.19c0-.27-.06-.63-.12-1.13a2.71,2.71,0,0,1,.16-1.08s0,0,0,0h1.15Zm14.39,83.24-.64-.42c-12.51-7.2-21.82-15-27.54-22.85l11.35-6,16.83,9.54Zm0-28.41L245.67,302l-15.27,8.1a26.69,26.69,0,0,1-2.7-11.33v-7.1h34.8Zm0-20.43H227.7c0-11.74,0-31.85,0-34.86h12.15l-2,0,1,1-1.45.51,1.05.45-1.71.52,1.41.5-1.55.78,1.28.24L236,261.69l2-.21-1.62,1.58,1.55-.25-1.36,1.88,1.91-.73-1,2,1.84-1.16v1.45l.93-.73-.06,1.17,1-.81.2.87.86-.56.23,1.21,1-1,.59,1.1.69-1.07.9.94.39-1,.87.93.29-1.29.93,1.22.18-1.57,1.46,1.35-.52-2.12,1.51,1.21-.71-2.26,1.4.92-.68-1.36,1.36.7-1.26-2,1.57.77-.81-1.45,2.18.3-2.63-1.44h1.82l-1.85-1,1.58-.09-1.9-.86,1.87-.23-2.4-.85,1.56-.95-1.9,0H262.5Zm35.3,0H263.05V270h34.73C297.79,276.93,297.8,285.09,297.8,291.08Zm-28.9-34.86h5.44v13.45H268.9Zm17.31,0h5.64v13.45h-5.64Zm-5.77,0h5.46v13.45h-5.46Zm-5.79,0h5.48v13.45h-5.48Zm17.51,13.45V256.22h5.61c0,1.45,0,6.89,0,13.45ZM268.6,256.22v13.45h-5.55V256.22Zm-4.92,83.29-.63.39V291.64H297.8c0,3.28,0,5.85,0,7.1C297.81,317.15,276.43,332.19,263.68,339.51Z" transform="translate(-226.93 -235.01)"/><path class="cls-1" d="M234.43,249V236.86l-2.37.24.36-1.63,4-.37V249Z" transform="translate(-226.93 -235.01)"/><path class="cls-1" d="M254.29,245.34V249h-2v-3.68h-5.49l-.34-1.55,6.48-8.5h1.31v8.46h1.61v1.59Zm-2-6.63c-.39.63-.82,1.19-1.23,1.73l-2.54,3.31h3.79v-3.34c0-.53,0-1.07,0-1.67Z" transform="translate(-226.93 -235.01)"/><path class="cls-1" d="M268.47,249.45l-1.93-.9A11.19,11.19,0,0,0,272.2,243a3,3,0,0,1-2.18.88,4.29,4.29,0,0,1-4.41-4.43,4.39,4.39,0,0,1,4.56-4.48,4.59,4.59,0,0,1,4.67,5C274.84,243.64,272.15,247.56,268.47,249.45Zm1.66-12.67a2.73,2.73,0,1,0,2.69,3.5c0-.21,0-.43,0-.66A2.84,2.84,0,0,0,270.13,236.78Z" transform="translate(-226.93 -235.01)"/><path class="cls-1" d="M288.13,249.26a6,6,0,0,1-2.6-.54l-.22-1.94a5.16,5.16,0,0,0,2.72.76,2.78,2.78,0,1,0,.06-5.56,6.54,6.54,0,0,0-2.37.37l.22-7.06h6l-.36,1.68h-3.77l-.09,3.34a3.64,3.64,0,0,1,.56-.05,4.43,4.43,0,0,1,4.67,4.56C293,247.19,291.3,249.26,288.13,249.26Z" transform="translate(-226.93 -235.01)"/></svg>